<?xml version="1.0" encoding="UTF-8" standalone="no"?>
<!DOCTYPE svg PUBLIC "-//W3C//DTD SVG 1.1//EN" "http://www.w3.org/Graphics/SVG/1.1/DTD/svg11.dtd">
<svg width="100%" height="100%" viewBox="0 0 190 219" version="1.1" xmlns="http://www.w3.org/2000/svg" xmlns:xlink="http://www.w3.org/1999/xlink" xml:space="preserve" xmlns:serif="http://www.serif.com/" style="fill-rule:evenodd;clip-rule:evenodd;stroke-linejoin:round;stroke-miterlimit:2;">
    <g transform="matrix(1,0,0,1,-3103.37,-1519.13)">
        <g transform="matrix(1,0,0,1,209.687,0)">
            <g transform="matrix(0.567051,0,0,0.567051,2798.97,1026.97)">
                <g>
                    <g transform="matrix(0.676363,-0.390498,4.72691e-17,0.882126,-568.648,755.808)">
                        <rect x="1334.66" y="936.575" width="246.958" height="218.646" style="fill:rgb(60,66,80);"/>
                    </g>
                    <g transform="matrix(0.866025,0.5,-5.55112e-17,1.1547,-1002.2,0)">
                        <rect x="1350.11" y="250.55" width="192.873" height="167.033" style="fill:rgb(14,17,25);"/>
                    </g>
                    <g transform="matrix(0.866025,-0.5,1,0.57735,-1002.2,0)">
                        <rect x="-289.31" y="1419.78" width="192.873" height="167.033" style="fill:rgb(107,112,125);"/>
                    </g>
                </g>
            </g>
            <g transform="matrix(0.141196,-0.0815194,7.83794e-18,0.163039,3035.76,1655.85)">
                <g transform="matrix(1,0,0,1,-256,-256)">
                    <g>
                        <path d="M256,211.478L256,300.522L512,434.087L512,77.913L256,211.478Z" style="fill:rgb(255,212,96);fill-rule:nonzero;"/>
                        <path d="M0,77.913L0,434.087L256,300.522L256,211.478L0,77.913Z" style="fill:rgb(255,212,96);fill-rule:nonzero;"/>
                    </g>
                    <path d="M204.8,256L0,434.087L512,434.087L307.2,256L204.8,256Z" style="fill:rgb(255,233,176);fill-rule:nonzero;"/>
                    <path d="M256,300.522L512,77.913L0,77.913L256,300.522Z" style="fill:rgb(255,190,17);fill-rule:nonzero;"/>
                </g>
            </g>
        </g>
    </g>
</svg>
