<?xml version="1.0" encoding="UTF-8" standalone="no"?>
<!DOCTYPE svg PUBLIC "-//W3C//DTD SVG 1.1//EN" "http://www.w3.org/Graphics/SVG/1.1/DTD/svg11.dtd">
<svg width="100%" height="100%" viewBox="0 0 190 219" version="1.1" xmlns="http://www.w3.org/2000/svg" xmlns:xlink="http://www.w3.org/1999/xlink" xml:space="preserve" xmlns:serif="http://www.serif.com/" style="fill-rule:evenodd;clip-rule:evenodd;stroke-linejoin:round;stroke-miterlimit:2;">
    <g transform="matrix(1,0,0,1,-2893.68,-1519.13)">
        <g>
            <g transform="matrix(0.567051,0,0,0.567051,2798.97,1026.97)">
                <g>
                    <g transform="matrix(0.676363,-0.390498,4.72691e-17,0.882126,-568.648,755.808)">
                        <rect x="1334.66" y="936.575" width="246.958" height="218.646" style="fill:rgb(60,66,80);"/>
                    </g>
                    <g transform="matrix(0.866025,0.5,-5.55112e-17,1.1547,-1002.2,0)">
                        <rect x="1350.11" y="250.55" width="192.873" height="167.033" style="fill:rgb(14,17,25);"/>
                    </g>
                    <g transform="matrix(0.866025,-0.5,1,0.57735,-1002.2,0)">
                        <rect x="-289.31" y="1419.78" width="192.873" height="167.033" style="fill:rgb(107,112,125);"/>
                    </g>
                </g>
            </g>
            <g transform="matrix(1.16122,-0.670433,6.44609e-17,1.34087,3035.76,1655.85)">
                <g transform="matrix(1,0,0,1,-29,-29)">
                    <g>
                        <path d="M0,58L4.988,43.037C2.457,38.78 1,33.812 1,28.5C1,12.76 13.76,0 29.5,0C45.24,0 58,12.76 58,28.5C58,44.24 45.24,57 29.5,57C24.711,57 20.201,55.813 16.24,53.727L0,58Z" style="fill:rgb(44,183,66);fill-rule:nonzero;"/>
                        <path d="M47.683,37.985C46.367,35.498 41.514,32.654 41.514,32.654C40.416,32.028 39.091,31.958 38.465,33.074C38.465,33.074 36.888,34.965 36.487,35.237C34.655,36.478 32.958,36.43 31.245,34.717L23.283,26.755C21.57,25.042 21.522,23.345 22.763,21.513C23.035,21.112 24.926,19.535 24.926,19.535C26.042,18.908 25.972,17.584 25.346,16.486C25.346,16.486 22.502,11.633 20.015,10.317C18.957,9.757 17.658,9.953 16.812,10.799L15.054,12.557C9.477,18.134 12.223,24.43 17.8,30.007L27.994,40.201C33.571,45.778 39.867,48.524 45.444,42.947L47.202,41.189C48.048,40.341 48.243,39.042 47.683,37.985Z" style="fill:white;fill-rule:nonzero;"/>
                    </g>
                </g>
            </g>
        </g>
    </g>
</svg>
