<?xml version="1.0" encoding="UTF-8" standalone="no"?>
<svg
   xmlns:dc="http://purl.org/dc/elements/1.1/"
   xmlns:cc="http://creativecommons.org/ns#"
   xmlns:rdf="http://www.w3.org/1999/02/22-rdf-syntax-ns#"
   xmlns:svg="http://www.w3.org/2000/svg"
   xmlns="http://www.w3.org/2000/svg"
   xmlns:sodipodi="http://sodipodi.sourceforge.net/DTD/sodipodi-0.dtd"
   xmlns:inkscape="http://www.inkscape.org/namespaces/inkscape"
   version="1.1"
   id="svg2"
   xml:space="preserve"
   width="520.14667"
   height="561.08002"
   viewBox="0 0 520.14667 561.08002"
   sodipodi:docname="2i3T.eps"><metadata
     id="metadata8"><rdf:RDF><cc:Work
         rdf:about=""><dc:format>image/svg+xml</dc:format><dc:type
           rdf:resource="http://purl.org/dc/dcmitype/StillImage" /></cc:Work></rdf:RDF></metadata><defs
     id="defs6" /><sodipodi:namedview
     pagecolor="#ffffff"
     bordercolor="#666666"
     borderopacity="1"
     objecttolerance="10"
     gridtolerance="10"
     guidetolerance="10"
     inkscape:pageopacity="0"
     inkscape:pageshadow="2"
     inkscape:window-width="640"
     inkscape:window-height="480"
     id="namedview4" /><g
     id="g10"
     inkscape:groupmode="layer"
     inkscape:label="ink_ext_XXXXXX"
     transform="matrix(1.3333333,0,0,-1.3333333,0,561.08)"><g
       id="g12"
       transform="scale(0.1)"><path
         d="M 0,0 H 3901.08 V 4208.11 H 0 V 0"
         style="fill:#ffffff;fill-opacity:1;fill-rule:evenodd;stroke:none"
         id="path14" /><path
         d="m 1765.18,1497.11 c 198.91,59.21 305.93,138.41 321.08,237.61 8.91,58.35 -5.4,107.41 -42.92,147.16 -37.52,39.77 -95.96,65.71 -175.32,77.82 -45.52,6.94 -87.76,5.92 -126.75,-3.05 -38.98,-8.97 -72.63,-22.06 -100.93,-39.24 -28.29,-17.17 -50.84,-35.82 -67.65,-55.95 -16.81,-20.12 -26.36,-37.77 -28.68,-52.94 -2.85,-18.68 3.89,-29.26 20.23,-31.75 7.01,-1.07 16.53,4.65 28.59,17.14 12.06,12.48 26.96,26.03 44.72,40.64 17.75,14.6 37.91,27.35 60.47,38.24 22.56,10.89 47.84,14.19 75.85,9.91 33.84,-5.16 59.6,-22.22 77.27,-51.2 17.67,-28.96 23.3,-64.46 16.89,-106.47 -15.67,-102.7 -101.78,-185.68 -258.33,-248.98 -39.38,-15.47 -71.52,-28.48 -96.41,-39.01 -24.9,-10.54 -38.86,-25.72 -41.88,-45.57 -1.07,-6.99 0.32,-13.47 4.19,-19.44 3.86,-5.97 8.72,-9.39 14.56,-10.28 4.66,-0.72 12.6,0.46 23.82,3.52 11.22,3.07 24.9,6.65 41.05,10.76 16.15,4.11 34.79,6.93 55.93,8.48 21.13,1.55 43.37,0.55 66.71,-3.02 64.19,-9.79 112.11,-43.97 143.78,-102.55 31.66,-58.57 40.81,-131.62 27.46,-219.15 -7.31,-47.84 -20.99,-90.528 -41.05,-128.079 -20.06,-37.543 -42.48,-69.039 -67.27,-94.52 -24.78,-25.48 -50.34,-44.273 -76.67,-56.371 -26.33,-12.101 -49.41,-16.64 -69.26,-13.609 -11.67,1.769 -20.6,5.828 -26.8,12.148 -6.2,6.313 -10.97,14.211 -14.3,23.68 -3.33,9.461 -6.15,20.34 -8.45,32.633 -2.31,12.297 -4.9,24.629 -7.79,37.019 -14.87,51.231 -41.56,79.778 -80.07,85.661 -23.34,3.558 -44.65,-3.043 -63.93,-19.801 -19.28,-16.762 -31.32,-40.891 -36.13,-72.41 -6.77,-44.34 2.65,-80.411 28.27,-108.2 25.61,-27.8 65.85,-45.882 120.69,-54.25 53.68,-8.191 111.46,-3.281 173.32,14.75 61.87,18.02 123.74,49.778 185.61,95.27 126.44,92.957 199.64,204.789 219.59,335.489 6.59,43.18 5.6,83.64 -2.97,121.38 -8.57,37.72 -23.16,71.29 -43.74,100.71 -20.6,29.41 -47.28,54.09 -80.06,74.01 -32.79,19.94 -70.19,33.11 -112.2,39.52 -7,1.07 -17.05,1.71 -30.16,1.92 -13.1,0.21 -29.75,0.66 -49.94,1.36 z m -468.98,166.52 c 4.98,32.68 1.64,49.9 -10.03,51.68 -4.67,0.72 -11.62,-1.8 -20.86,-7.56 -9.24,-5.76 -21.12,-13.2 -35.65,-22.33 -14.53,-9.12 -33.03,-18.84 -55.5,-29.14 -22.47,-10.3 -49.37,-20.24 -80.68,-29.79 -21.26,-6.3 -39.46,-10.09 -54.57,-11.37 -15.13,-1.27 -28.21,-2.86 -39.246,-4.76 -11.035,-1.89 -19.586,-5.07 -25.637,-9.52 -6.047,-4.45 -9.882,-11.92 -11.484,-22.43 -1.426,-9.34 -0.109,-16.4 3.934,-21.2 4.043,-4.8 9.476,-8.31 16.3,-10.55 6.828,-2.24 14.524,-4.6 23.103,-7.11 8.57,-2.5 16,-6.62 22.29,-12.35 11.6,-10.14 17.28,-21.75 17.07,-34.86 -0.21,-13.1 -2.18,-31.91 -5.92,-56.41 l -51.027,-334.36 c -4.273,-28 -9.188,-48.45 -14.734,-61.34 -5.551,-12.89 -17.118,-22.16 -34.707,-27.84 -7.536,-2.43 -15.723,-3.27 -24.567,-2.52 -8.84,0.75 -16.89,0.79 -24.164,0.11 -7.269,-0.68 -13.594,-3 -18.973,-6.95 -5.386,-3.971 -8.878,-11.19 -10.48,-21.702 -3.203,-21 3.363,-32.758 19.703,-35.25 5.828,-0.887 27.442,-2.098 64.828,-3.629 37.383,-1.508 89.921,-7.437 157.611,-17.769 44.34,-6.77 79,-14.461 103.96,-23.039 24.96,-8.582 43.27,-13.77 54.94,-15.563 21.01,-3.199 33.21,6.281 36.59,28.461 1.78,11.672 0.41,20.242 -4.13,25.711 -4.55,5.469 -10.81,9.41 -18.8,11.828 -7.99,2.41 -16.9,4.672 -26.73,6.762 -9.83,2.101 -18.97,6.781 -27.41,14.039 -11.78,8.961 -18.34,20.711 -19.71,35.241 -1.36,14.55 -0.08,34.65 3.84,60.33 l 90.84,595.18 z m -45.58,393.87 c -32.68,4.99 -63.43,-2.85 -92.26,-23.53 -28.83,-20.68 -46.28,-50.86 -52.33,-90.53 -5.88,-38.52 1.52,-72.19 22.2,-101.02 20.68,-28.84 47.94,-45.83 81.78,-50.99 33.85,-5.17 64.94,2.93 93.27,24.27 28.34,21.35 45.45,51.28 51.32,89.8 6.06,39.68 -1.29,73.64 -22.07,101.88 -20.76,28.25 -48.07,44.95 -81.91,50.12 z M 262.527,3516.16 H 2990.13 c 65.22,0 118.57,-53.35 118.57,-118.57 V 1829.33 c -4.31,-0.96 -8.04,-3.04 -11.2,-6.22 -5.64,-5.72 -10.84,-12.39 -15.59,-20.02 -4.75,-7.63 -9.36,-14.39 -13.84,-20.28 -4.49,-5.89 -10.23,-8.29 -17.23,-7.22 -6.27,-9.79 -23,-13.81 -50.2,-12.05 -27.2,1.76 -62.97,6.03 -107.32,12.81 l -376.36,57.43 c -12.84,1.96 -23.68,3.32 -32.52,4.07 -8.84,0.75 -16.76,1.67 -23.77,2.74 -10.49,1.6 -18.4,4.6 -23.7,8.99 -5.3,4.38 -8.73,13.27 -10.26,26.64 -2.16,1.52 -3.71,5.04 -4.66,10.56 -0.96,5.52 -2.15,11.37 -3.59,17.57 -1.45,6.19 -3.61,11.6 -6.48,16.21 -2.88,4.63 -7.23,7.38 -13.07,8.27 -14.01,2.14 -24.74,-7.57 -32.21,-29.12 -7.47,-21.56 -16.93,-46.38 -28.39,-74.49 -23.52,-68.06 -42.08,-119.26 -55.68,-153.61 -13.61,-34.34 -21.2,-56.78 -22.81,-67.27 -3.02,-19.85 3.63,-31.01 19.97,-33.51 15.17,-2.31 29.83,7.7 43.99,30.01 14.15,22.32 37.5,50.11 70.04,83.36 22.59,22.82 45.48,41.72 68.66,56.69 23.18,14.97 48.19,20.41 75.04,16.32 l 21.01,-3.22 c 5.83,-0.88 10.03,-6.6 12.6,-17.14 2.57,-10.54 3.32,-19.32 2.25,-26.32 L 2444.34,865.031 c -4.63,-30.351 -12.12,-50.101 -22.47,-59.269 -10.37,-9.172 -27.56,-14.313 -51.62,-15.41 -19.21,-0.653 -32.87,-2.153 -40.99,-4.493 -8.12,-2.339 -13.16,-9.937 -15.12,-22.769 -3.92,-25.68 5.21,-40.211 27.38,-43.602 8.18,-1.238 28.36,-1.929 60.59,-2.078 32.23,-0.129 78.1,-4.738 137.61,-13.832 59.52,-9.078 104.67,-18.367 135.47,-27.84 30.8,-9.476 50.28,-14.84 58.45,-16.078 22.17,-3.39 35.32,8.34 39.41,35.168 2.14,14.024 -1,22.863 -9.4,26.524 -8.39,3.668 -22.24,8.769 -41.55,15.296 -20.47,6.711 -34.1,17.153 -40.89,31.321 -6.8,14.172 -8.23,34.101 -4.32,59.769 l 129.58,849.012 c 0.89,5.83 4.14,13.4 9.73,22.69 5.61,9.3 11.32,13.5 17.15,12.61 l 42.02,-6.41 c 31.51,-4.81 54.92,-17.64 70.26,-38.49 15.32,-20.85 27.26,-46.25 35.83,-76.22 12.08,-46.04 19.35,-80.58 21.8,-103.65 2.45,-23.06 11.26,-35.75 26.44,-38.06 12.83,-1.96 22.65,3.7 29.46,17 6.81,13.29 13.33,32.59 19.58,57.91 10.47,50.1 20.45,93.42 29.96,129.97 V 669.969 c 0,-65.207 -53.35,-118.571 -118.57,-118.571 H 262.527 c -65.218,0 -118.574,53.364 -118.574,118.571 v 390.441 c 3.227,-0.59 6.629,-1.15 10.219,-1.7 l 250.32,-38.21 c 66.52,-10.15 122.363,-19.87 167.52,-29.141 45.156,-9.289 79.406,-15.711 102.746,-19.269 22.172,-3.391 35.32,-3.301 39.445,0.25 4.121,3.551 8.641,17.488 13.547,41.82 l 42.531,231.75 4.543,29.75 c 1.606,10.51 0.317,19.66 -3.867,27.47 -4.18,7.81 -9.773,12.24 -16.777,13.31 -11.668,1.77 -20.102,-2.6 -25.293,-13.16 -5.196,-10.56 -11.192,-22.47 -17.996,-35.77 -6.809,-13.29 -16.606,-24.63 -29.375,-34.02 -12.782,-9.4 -32.008,-12.14 -57.684,-8.23 L 349,1267.22 c -10.504,1.6 -15.047,7.07 -13.617,16.4 0.89,5.84 4.789,11.81 11.687,17.92 l 31.602,31.01 c 25.281,24.8 52.34,47.54 81.172,68.22 28.828,20.67 58.066,40.1 87.711,58.26 29.64,18.17 58.945,36.09 87.914,53.76 28.969,17.67 55.738,36.57 80.308,56.71 80.43,65.34 127.95,145.87 142.551,241.56 13.719,89.87 -1.922,165.39 -46.918,226.6 -44.992,61.21 -114.762,99.02 -209.285,113.45 -96.859,14.78 -184.84,-10.01 -263.926,-74.37 -34.16,-28.22 -60.09,-55.31 -77.785,-81.27 -17.695,-25.96 -27.43,-44.78 -29.219,-56.45 -3.019,-19.84 2.465,-30.83 16.469,-32.97 7.004,-1.06 13.484,0.34 19.449,4.2 5.961,3.87 12.242,9.78 18.828,17.73 6.586,7.95 14.657,17.76 24.2,29.44 9.543,11.68 21.398,24.81 35.562,39.36 50.918,51.94 104.965,73.54 162.152,64.81 47.848,-7.29 83.461,-32.14 106.852,-74.52 23.391,-42.37 30.18,-95.66 20.387,-159.84 -4.813,-31.52 -14.711,-63.15 -29.711,-94.9 -14.992,-31.73 -34.969,-64.81 -59.922,-99.22 -24.957,-34.41 -54.148,-71.15 -87.578,-110.24 -33.434,-39.08 -70.906,-81.12 -112.403,-126.14 -74.582,-81.77 -133.628,-145.9 -177.152,-192.4 -8.976,-9.59 -17.101,-18.68 -24.375,-27.24 v 2220.5 c 0,65.22 53.356,118.57 118.574,118.57 v 0"
         style="fill:#249e43;fill-opacity:1;fill-rule:evenodd;stroke:none"
         id="path16" /><path
         d="m 287.871,4033.25 c 0,12.28 2.008,20.67 6.024,25.16 4.019,4.49 11.226,7.45 21.625,8.86 7.082,0.95 11.925,2.13 14.531,3.55 2.594,1.41 3.898,4.73 3.898,9.92 0,10.4 -4.492,15.6 -13.469,15.6 -2.835,0 -10.75,-0.83 -23.746,-2.48 -13,-1.66 -31.546,-2.48 -55.648,-2.48 -24.109,0 -42.656,0.82 -55.652,2.48 -12.996,1.65 -20.918,2.48 -23.75,2.48 -8.981,0 -13.469,-4.96 -13.469,-14.89 0,-6.61 2.129,-10.51 6.379,-11.69 4.254,-1.19 10.164,-2.49 17.726,-3.9 8.032,-1.9 13.586,-5.32 16.657,-10.29 3.074,-4.96 4.609,-12.64 4.609,-23.03 v -321.15 c 0,-12.28 -1.773,-20.55 -5.32,-24.8 -3.539,-4.26 -10.043,-7.33 -19.493,-9.22 -7.562,-1.42 -12.878,-2.84 -15.953,-4.26 -3.07,-1.41 -4.605,-4.72 -4.605,-9.92 0,-10.4 4.488,-15.6 13.469,-15.6 3.304,0 11.343,0.95 24.101,2.84 12.762,1.89 31.192,2.84 55.301,2.84 24.102,0 42.531,-0.95 55.293,-2.84 12.758,-1.89 20.793,-2.84 24.101,-2.84 8.977,0 13.469,5.44 13.469,16.31 0,5.67 -1.777,8.98 -5.32,9.92 -3.539,0.95 -9.332,2.13 -17.363,3.55 -8.508,1.42 -14.532,4.72 -18.078,9.93 -3.543,5.19 -5.317,12.99 -5.317,23.39 v 322.56"
         style="fill:#249e43;fill-opacity:1;fill-rule:nonzero;stroke:none"
         id="path18" /><path
         d="m 708.258,3992.84 c 0,22.68 1.176,39.7 3.539,51.04 2.363,11.34 7.562,18.43 15.598,21.26 4.722,1.9 9.093,3.08 13.113,3.55 4.019,0.47 7.328,1.07 9.926,1.77 2.597,0.71 4.605,1.77 6.027,3.19 1.414,1.42 2.129,4.02 2.129,7.8 0,10.4 -5.199,15.6 -15.602,15.6 -5.668,0 -10.629,-0.59 -14.883,-1.77 -4.253,-1.18 -7.562,-1.78 -9.925,-1.78 -0.95,0 -3.309,-0.12 -7.09,-0.35 -3.781,-0.24 -9.688,-0.36 -17.723,-0.36 -7.562,0 -13.351,0.12 -17.371,0.36 -4.016,0.23 -6.5,0.35 -7.441,0.35 -3.313,0 -7.442,0.6 -12.407,1.78 -4.96,1.18 -10.753,1.77 -17.371,1.77 -11.812,0 -17.722,-5.2 -17.722,-15.6 0,-4.25 1.062,-7.21 3.191,-8.86 2.125,-1.65 4.965,-2.72 8.508,-3.19 3.547,-0.47 7.68,-0.95 12.406,-1.42 4.727,-0.47 9.688,-1.89 14.883,-4.25 8.039,-3.78 13.355,-11.11 15.953,-21.98 2.598,-10.87 3.902,-27.18 3.902,-48.91 v -151 c 0,-6.62 -1.89,-9.93 -5.675,-9.93 -1.887,0 -4.246,2.13 -7.09,6.38 l -156.664,243.16 c -3.781,5.68 -6.852,9.34 -9.219,10.99 -2.359,1.66 -6.379,2.48 -12.047,2.48 -2.84,0 -8.152,-0.24 -15.949,-0.71 -7.801,-0.47 -17.844,-0.71 -30.133,-0.71 -20.793,0 -36.391,0.47 -46.789,1.42 -10.394,0.94 -16.535,1.42 -18.434,1.42 -8.976,0 -13.464,-5.2 -13.464,-15.6 0,-4.25 0.941,-7.2 2.832,-8.86 1.89,-1.66 4.375,-2.72 7.445,-3.19 3.07,-0.47 6.383,-0.83 9.922,-1.06 3.551,-0.24 6.972,-1.07 10.285,-2.49 6.613,-3.3 10.75,-9.45 12.402,-18.43 1.657,-8.98 2.485,-21.26 2.485,-36.86 v -257.33 c 0,-22.69 -1.184,-39.71 -3.551,-51.05 -2.359,-11.34 -7.559,-18.43 -15.594,-21.27 -4.722,-1.88 -8.98,-3.07 -12.762,-3.54 -3.777,-0.47 -7.082,-0.95 -9.925,-1.42 -2.832,-0.47 -4.953,-1.53 -6.375,-3.19 -1.422,-1.66 -2.129,-4.37 -2.129,-8.15 0,-10.4 5.199,-15.6 15.594,-15.6 4.257,0 10.402,0.71 18.433,2.13 8.035,1.41 18.434,2.12 31.195,2.12 12.758,0 23.629,-0.71 32.61,-2.12 8.976,-1.42 16.066,-2.13 21.262,-2.13 12.292,0 18.441,5.2 18.441,15.6 0,4.25 -1.184,7.2 -3.551,8.86 -2.359,1.65 -5.43,2.6 -9.215,2.83 -3.777,0.25 -8.031,0.6 -12.758,1.07 -4.726,0.47 -9.453,1.89 -14.179,4.25 -8.039,3.78 -13.235,11.23 -15.598,22.33 -2.363,11.11 -3.543,27.54 -3.543,49.28 v 235.36 c 0,6.61 0.707,9.92 2.129,9.92 1.891,0 4.02,-1.42 6.375,-4.25 l 211.965,-335.32 c 5.199,-8.51 10.043,-15.48 14.535,-20.92 4.488,-5.43 10.039,-8.15 16.656,-8.15 12.289,0 18.438,11.35 18.438,34.03 v 329.65"
         style="fill:#249e43;fill-opacity:1;fill-rule:nonzero;stroke:none"
         id="path20" /><path
         d="m 784.813,3873.03 c 0,-35.45 5.203,-67.7 15.597,-96.76 10.403,-29.07 24.934,-54 43.606,-74.8 18.664,-20.79 41.234,-36.86 67.695,-48.2 26.469,-11.35 56.004,-17.02 88.619,-17.02 27.88,0 51.86,3.66 71.95,10.99 20.09,7.33 35.09,16.66 45.01,28 4.26,5.2 6.86,12.29 7.81,21.27 0.94,8.98 1.41,21.03 1.41,36.15 0,16.54 -0.47,28 -1.41,34.39 -0.95,6.38 -4.03,9.57 -9.22,9.57 -5.2,0 -9.1,-3.9 -11.7,-11.7 -2.6,-7.79 -7.21,-19.26 -13.82,-34.38 -9.45,-21.27 -21.62,-37.58 -36.51,-48.92 -14.89,-11.34 -30.84,-17.01 -47.85,-17.01 -16.547,0 -32.262,4.96 -47.148,14.89 -14.883,9.92 -27.762,23.86 -38.633,41.82 -10.867,17.96 -19.496,39.58 -25.871,64.87 -6.383,25.28 -9.575,53.28 -9.575,84.01 0,31.66 3.309,60.37 9.922,86.13 6.618,25.76 15.364,47.85 26.235,66.28 10.867,18.44 23.633,32.61 38.273,42.53 14.652,9.93 29.777,14.9 45.377,14.9 17.01,0 31.43,-4.14 43.24,-12.41 11.82,-8.27 22.69,-20.92 32.61,-37.93 6.62,-10.87 11.46,-20.09 14.54,-27.65 3.07,-7.56 7.91,-11.34 14.53,-11.34 7.09,0 10.63,5.2 10.63,15.59 0,20.33 -1.3,37.58 -3.9,51.75 -2.6,14.18 -4.37,21.99 -5.31,23.4 -1.9,2.36 -5.91,5.2 -12.06,8.51 -6.14,3.31 -13.94,6.38 -23.39,9.22 -9.45,2.83 -20.32,5.2 -32.61,7.09 -12.29,1.88 -25.52,2.83 -39.7,2.83 -32.137,0 -61.555,-6.03 -88.258,-18.08 -26.699,-12.05 -49.742,-28.59 -69.121,-49.63 -19.375,-21.02 -34.379,-45.95 -45.015,-74.78 -10.633,-28.83 -15.953,-60.02 -15.953,-93.58"
         style="fill:#249e43;fill-opacity:1;fill-rule:nonzero;stroke:none"
         id="path22" /><path
         d="m 1300.9,4033.25 c 0,12.28 2.02,20.67 6.03,25.16 4.02,4.49 11.23,7.45 21.62,8.86 7.09,0.95 11.93,2.13 14.54,3.55 2.59,1.41 3.89,4.73 3.89,9.92 0,10.4 -4.49,15.6 -13.46,15.6 -3.31,0 -11.11,-0.83 -23.4,-2.48 -12.29,-1.66 -29.53,-2.48 -51.75,-2.48 -24.1,0 -42.65,0.82 -55.65,2.48 -12.99,1.65 -20.91,2.48 -23.75,2.48 -8.97,0 -13.47,-5.2 -13.47,-15.6 0,-6.14 2.01,-9.69 6.03,-10.63 4.02,-0.95 10.04,-2.37 18.07,-4.25 8.04,-1.9 13.59,-5.32 16.66,-10.29 3.08,-4.96 4.61,-12.64 4.61,-23.03 v -240.33 c 0,-22.68 1.07,-42.41 3.19,-59.19 2.13,-16.78 8.16,-32.02 18.08,-45.72 13.71,-17.96 31.43,-30.96 53.17,-39 21.74,-8.03 48.91,-12.05 81.52,-12.05 29.78,0 55.18,4.61 76.21,13.82 21.03,9.22 37.22,22.57 48.56,40.06 10.4,16.54 16.42,34.97 18.08,55.3 1.65,20.32 2.48,44.42 2.48,72.3 v 84.36 c 0,44.43 0.71,79.75 2.13,105.98 1.41,26.23 5.43,43.37 12.05,51.4 2.83,3.31 6.61,5.33 11.34,6.03 4.73,0.71 9.21,1.18 13.47,1.42 4.26,0.23 7.92,1.3 10.99,3.19 3.07,1.89 4.61,5.67 4.61,11.34 0,5.2 -1.42,8.86 -4.26,10.99 -2.83,2.13 -7.8,3.19 -14.89,3.19 -6.14,0 -13.23,-0.47 -21.26,-1.42 -8.04,-0.94 -16.78,-1.42 -26.23,-1.42 -11.82,0 -21.98,0.48 -30.49,1.42 -8.5,0.95 -15.35,1.42 -20.55,1.42 -12.77,0 -19.14,-4.73 -19.14,-14.18 0,-5.67 1.53,-9.45 4.6,-11.34 3.08,-1.89 6.74,-3.07 10.99,-3.55 4.26,-0.47 8.63,-1.06 13.12,-1.76 4.49,-0.72 8.15,-2.73 10.98,-6.03 6.62,-8.04 10.76,-25.06 12.41,-51.05 1.66,-25.99 2.48,-61.2 2.48,-105.63 v -87.19 c 0,-24.58 -0.82,-45.61 -2.48,-63.1 -1.65,-17.48 -6.5,-32.37 -14.53,-44.66 -17.02,-25.05 -43.48,-37.57 -79.4,-37.57 -17.96,0 -32.49,2.84 -43.6,8.5 -11.1,5.68 -19.96,14.07 -26.58,25.17 -6.62,11.11 -11.11,24.81 -13.47,41.12 -2.37,16.3 -3.55,35.33 -3.55,57.07 v 231.82"
         style="fill:#249e43;fill-opacity:1;fill-rule:nonzero;stroke:none"
         id="path24" /><path
         d="m 1722.71,3723.45 v 114.13 c 0,14.65 1.53,25.17 4.6,31.55 3.08,6.38 10.99,9.57 23.75,9.57 26.47,0 47.14,-9.81 62.03,-29.42 14.89,-19.61 22.33,-46.43 22.33,-80.46 0,-30.25 -6.26,-54 -18.78,-71.25 -12.53,-17.25 -29.19,-25.87 -49.98,-25.87 -16.54,0 -28,4.25 -34.38,12.76 -6.38,8.5 -9.57,21.5 -9.57,38.99 z m 97.12,172.26 c 65.21,8.51 97.83,39.94 97.83,94.29 0,73.26 -52.23,109.88 -156.67,109.88 -119.57,0 -179.35,-11.81 -179.35,-35.44 0,-8.04 3.3,-12.05 9.92,-12.05 3.31,0 6.5,0.59 9.57,1.77 3.07,1.18 6.5,1.77 10.28,1.77 8.03,0 13.35,-4.13 15.95,-12.41 2.6,-8.27 3.9,-21.15 3.9,-38.63 v -293.5 c 0,-12.28 -2.13,-20.55 -6.38,-24.8 -4.26,-4.26 -11.11,-7.33 -20.56,-9.22 -8.04,-1.42 -13.59,-2.84 -16.66,-4.26 -3.07,-1.41 -4.61,-4.72 -4.61,-9.92 0,-10.4 4.49,-15.6 13.47,-15.6 3.78,0 11.58,0.71 23.39,2.13 11.82,1.42 27.42,2.12 46.79,2.12 16.55,0 35.21,-1.41 56.01,-4.25 20.79,-2.83 43.71,-4.25 68.76,-4.25 46.79,0 82,10.99 105.63,32.96 23.63,21.98 35.44,54.24 35.44,96.77 0,35.92 -9.92,64.39 -29.77,85.43 -19.85,21.03 -47.5,33.43 -82.94,37.21 z m -97.12,33.32 v 106.34 c 0,14.65 1.77,24.46 5.31,29.43 3.55,4.96 12.65,7.43 27.3,7.43 21.26,0 37.68,-7.32 49.26,-21.97 11.58,-14.65 17.37,-35.69 17.37,-63.09 0,-52.47 -27.41,-78.69 -82.23,-78.69 -8.5,0 -13.47,1.06 -14.89,3.18 -1.41,2.13 -2.12,7.92 -2.12,17.37 v 0"
         style="fill:#249e43;fill-opacity:1;fill-rule:nonzero;stroke:none"
         id="path26" /><path
         d="m 2096.31,3960.94 37.57,-112.72 c 0.48,-1.89 0.71,-4.49 0.71,-7.8 0,-2.84 -2.36,-4.25 -7.09,-4.25 h -70.19 c -4.25,0 -6.37,1.18 -6.37,3.54 0,0.47 0.47,2.13 1.41,4.96 l 34.74,115.55 c 1.42,5.68 3.07,8.51 4.96,8.51 1.42,0 2.83,-2.59 4.26,-7.79 z m 60.96,119.8 c -3.78,12.29 -6.97,20.09 -9.57,23.4 -2.6,3.31 -8.15,4.96 -16.66,4.96 -7.56,0 -13.23,-1.54 -17.01,-4.61 -3.79,-3.07 -7.8,-10.75 -12.06,-23.04 l -117.67,-358 c -3.78,-10.87 -7.57,-19.62 -11.35,-26.24 -3.78,-6.61 -8.5,-11.33 -14.18,-14.17 -6.61,-3.31 -12.4,-5.79 -17.36,-7.45 -4.96,-1.65 -7.45,-6.49 -7.45,-14.53 0,-8.97 4.73,-13.47 14.18,-13.47 1.89,0 6.62,0.83 14.18,2.48 7.56,1.66 18.9,2.48 34.03,2.48 19.85,0 34.97,-0.82 45.37,-2.48 10.4,-1.65 16.54,-2.48 18.43,-2.48 9.93,0 14.89,4.73 14.89,14.18 0,7.57 -2.95,12.17 -8.87,13.82 -5.91,1.66 -13.58,4.38 -23.04,8.16 -10.39,4.25 -17.12,8.86 -20.2,13.82 -3.07,4.97 -4.61,11.94 -4.61,20.91 0,11.35 4.49,32.85 13.48,64.52 1.41,4.72 2.95,8.39 4.61,10.98 1.65,2.6 4.36,4.61 8.14,6.03 3.79,1.42 9.34,2.25 16.66,2.48 7.33,0.24 17.14,0.36 29.42,0.36 22.69,0 38.29,-0.59 46.79,-1.78 8.51,-1.18 13.94,-5.79 16.3,-13.82 l 24.11,-78.69 c 1.42,-5.2 2.12,-9.45 2.12,-12.76 0,-6.62 -2,-10.87 -6.02,-12.76 -4.02,-1.89 -8.28,-3.31 -12.76,-4.25 -4.49,-0.95 -8.75,-2.36 -12.76,-4.26 -4.02,-1.89 -6.03,-6.14 -6.03,-12.76 0,-9.45 5.43,-14.18 16.3,-14.18 8.99,0 20.32,1.07 34.03,3.19 13.72,2.13 29.55,3.19 47.5,3.19 19.85,0 35.81,-0.82 47.86,-2.48 12.05,-1.65 20.67,-2.48 25.87,-2.48 6.62,0 11.46,0.83 14.54,2.48 3.06,1.66 4.6,5.09 4.6,10.28 0,4.25 -0.94,7.44 -2.84,9.57 -1.89,2.13 -4.37,3.66 -7.44,4.61 -3.07,0.94 -6.38,1.77 -9.92,2.48 -3.55,0.71 -6.74,1.77 -9.57,3.19 -12.29,6.62 -23.4,25.52 -33.32,56.72 l -112.72,342.4 v 0"
         style="fill:#249e43;fill-opacity:1;fill-rule:nonzero;stroke:none"
         id="path28" /><path
         d="m 2533.7,4070.11 c 12.76,0 22.8,-3.66 30.13,-10.99 7.32,-7.32 13.58,-16.66 18.79,-28 7.56,-17.49 12.52,-30.73 14.88,-39.71 2.36,-8.97 6.62,-13.46 12.76,-13.46 5.2,0 8.74,2.84 10.64,8.5 1.88,5.68 3.3,13.71 4.25,24.11 1.41,25.99 3.19,47.62 5.32,64.87 2.12,17.25 3.18,31.31 3.18,42.17 0,2.37 -0.94,5.68 -2.83,9.93 -1.89,4.25 -4.49,6.38 -7.8,6.38 -3.78,0 -6.61,-1.3 -8.51,-3.9 -1.88,-2.6 -3.54,-5.55 -4.96,-8.86 -1.42,-3.31 -2.83,-6.26 -4.25,-8.86 -1.42,-2.6 -3.54,-3.9 -6.38,-3.9 -1.89,-4.25 -8.28,-6.85 -19.14,-7.8 -10.87,-0.94 -25.29,-1.41 -43.25,-1.41 h -152.41 c -5.19,0 -9.57,-0.13 -13.11,-0.36 -3.55,-0.23 -6.74,-0.36 -9.57,-0.36 -4.26,0 -7.57,0.72 -9.93,2.13 -2.36,1.42 -4.25,4.73 -5.67,9.93 -0.95,0.46 -1.78,1.77 -2.48,3.89 -0.71,2.13 -1.54,4.38 -2.48,6.74 -0.95,2.36 -2.13,4.37 -3.55,6.03 -1.41,1.65 -3.31,2.48 -5.67,2.48 -5.67,0 -9.34,-4.5 -10.99,-13.47 -1.66,-8.98 -3.9,-19.38 -6.73,-31.19 -5.2,-28.36 -9.46,-49.75 -12.77,-64.16 -3.3,-14.41 -4.96,-23.75 -4.96,-28 0,-8.04 3.31,-12.05 9.93,-12.05 6.15,0 11.34,4.84 15.6,14.53 4.25,9.68 11.81,22.09 22.68,37.22 7.56,10.39 15.48,19.26 23.75,26.58 8.28,7.33 17.84,10.99 28.71,10.99 h 8.51 c 2.36,0 4.37,-2.01 6.03,-6.03 1.65,-4.02 2.48,-7.44 2.48,-10.28 v -342.41 c 0,-12.28 -1.78,-20.55 -5.33,-24.8 -3.53,-4.26 -10.03,-7.33 -19.49,-9.22 -7.56,-1.42 -12.88,-2.84 -15.95,-4.26 -3.07,-1.41 -4.6,-4.72 -4.6,-9.92 0,-10.4 4.49,-15.6 13.46,-15.6 3.31,0 11.35,0.95 24.1,2.84 12.77,1.89 31.2,2.84 55.31,2.84 24.09,0 42.53,-0.95 55.29,-2.84 12.75,-1.89 20.79,-2.84 24.1,-2.84 8.98,0 13.47,5.44 13.47,16.31 0,5.67 -1.78,8.98 -5.32,9.92 -3.55,0.95 -9.33,2.13 -17.37,3.55 -8.5,1.42 -14.53,4.72 -18.07,9.93 -3.55,5.19 -5.33,12.99 -5.33,23.39 v 343.82 c 0,2.37 0.83,5.55 2.48,9.57 1.66,4.02 3.67,6.03 6.04,6.03 h 17.01"
         style="fill:#249e43;fill-opacity:1;fill-rule:nonzero;stroke:none"
         id="path30" /><path
         d="m 2856.25,4081.45 c 15.6,0 30.37,-5.2 44.31,-15.59 13.94,-10.4 26.11,-25.29 36.51,-44.67 10.4,-19.37 18.67,-43.12 24.81,-71.24 6.15,-28.13 9.21,-59.91 9.21,-95.35 0,-30.72 -2.59,-57.9 -7.79,-81.53 -5.19,-23.63 -12.41,-43.48 -21.62,-59.55 -9.22,-16.07 -20.21,-28.24 -32.97,-36.51 -12.75,-8.26 -26.46,-12.4 -41.11,-12.4 -15.6,0 -30.37,5.08 -44.31,15.24 -13.94,10.16 -26.11,25.05 -36.51,44.66 -10.39,19.62 -18.55,43.48 -24.46,71.6 -5.9,28.12 -8.85,60.14 -8.85,96.06 0,30.25 2.59,57.19 7.79,80.82 5.2,23.63 12.41,43.47 21.62,59.55 9.22,16.06 20.09,28.24 32.61,36.5 12.53,8.27 26.11,12.41 40.76,12.41 z m 7.8,27.65 c -29.3,0 -56.71,-6.03 -82.23,-18.08 -25.52,-12.05 -47.74,-28.59 -66.63,-49.63 -18.91,-21.02 -33.8,-45.95 -44.67,-74.78 -10.87,-28.83 -16.31,-60.02 -16.31,-93.58 0,-33.56 5.44,-64.75 16.31,-93.58 10.87,-28.82 25.76,-53.88 44.67,-75.15 18.89,-21.26 40.76,-37.92 65.56,-49.97 24.82,-12.06 51.4,-18.08 79.76,-18.08 29.29,0 56.71,6.02 82.23,18.08 25.52,12.05 47.73,28.71 66.64,49.97 18.9,21.27 33.79,46.33 44.66,75.15 10.87,28.83 16.3,60.02 16.3,93.58 0,33.56 -5.43,64.75 -16.3,93.58 -10.87,28.83 -25.76,53.76 -44.66,74.78 -18.91,21.04 -40.77,37.58 -65.57,49.63 -24.82,12.05 -51.4,18.08 -79.76,18.08 v 0"
         style="fill:#249e43;fill-opacity:1;fill-rule:nonzero;stroke:none"
         id="path32" /><path
         d="m 3336.19,3882.25 c 33.56,7.09 59.07,20.08 76.56,38.98 17.48,18.91 26.22,42.07 26.22,69.48 0,34.97 -10.5,61.79 -31.54,80.46 -21.02,18.67 -52.81,28.01 -95.35,28.01 -17.01,0 -36.97,-0.59 -59.89,-1.78 -22.92,-1.18 -48.8,-1.77 -77.63,-1.77 -9.45,0 -18.08,0.35 -25.88,1.07 -7.79,0.7 -14.53,1.05 -20.2,1.05 -15.6,0 -23.39,-5.43 -23.39,-16.3 0,-6.14 2.12,-9.81 6.37,-10.99 4.25,-1.18 10.41,-2.72 18.43,-4.6 8.04,-1.9 13.48,-5.32 16.31,-10.29 2.84,-4.96 4.26,-12.64 4.26,-23.03 v -321.15 c 0,-11.81 -1.66,-19.96 -4.97,-24.45 -3.3,-4.49 -9.69,-7.68 -19.14,-9.57 -8.03,-1.42 -13.47,-2.84 -16.3,-4.26 -2.84,-1.41 -4.26,-4.72 -4.26,-9.92 0,-10.4 4.49,-15.6 13.47,-15.6 3.31,0 11.35,0.95 24.11,2.84 12.75,1.89 30.71,2.84 53.88,2.84 23.62,0 41.94,-0.95 54.94,-2.84 13,-1.89 20.91,-2.84 23.74,-2.84 8.98,0 13.46,5.44 13.46,16.31 0,6.14 -1.88,9.57 -5.66,10.28 -3.78,0.71 -9.69,1.77 -17.72,3.19 -8.51,1.42 -14.3,4.72 -17.37,9.93 -3.07,5.19 -4.61,12.99 -4.61,23.39 v 143.2 c 0,6.62 2.6,9.92 7.8,9.92 h 4.96 c 14.18,0 27.41,-15.59 39.69,-46.78 l 57.44,-146.04 c 4.24,-10.87 7.79,-17.37 10.62,-19.5 2.84,-2.13 7.33,-3.19 13.48,-3.19 7.56,0 15.59,0.47 24.1,1.42 8.51,0.94 17.48,1.42 26.93,1.42 12.3,0 22.1,-0.71 29.43,-2.13 7.32,-1.42 12.63,-2.13 15.94,-2.13 3.31,0 6.03,1.3 8.16,3.9 2.13,2.6 3.19,5.8 3.19,9.57 0,3.79 -1.41,6.62 -4.26,8.51 -2.83,1.89 -6.37,4.14 -10.63,6.73 -4.25,2.6 -8.86,6.27 -13.82,11 -4.96,4.72 -9.34,11.57 -13.11,20.55 l -53.88,123.35 c -6.62,14.65 -13.83,25.88 -21.62,33.68 -7.81,7.79 -18.56,13.82 -32.26,18.08 z m -93.57,48.2 v 85.07 c 0,17.49 1.76,30.6 5.31,39.34 3.54,8.75 12.41,13.12 26.58,13.12 8.98,0 17.37,-2.24 25.17,-6.73 7.8,-4.49 14.65,-10.64 20.55,-18.43 5.91,-7.8 10.64,-17.02 14.18,-27.66 3.55,-10.63 5.33,-22.32 5.33,-35.08 0,-25.53 -7.22,-46.44 -21.63,-62.74 -14.42,-16.31 -33.68,-24.46 -57.77,-24.46 -8.51,0 -13.59,2.12 -15.24,6.38 -1.66,4.25 -2.48,12.52 -2.48,24.81 v 6.38 0"
         style="fill:#249e43;fill-opacity:1;fill-rule:nonzero;stroke:none"
         id="path34" /><path
         d="m 3781.39,4084.29 c 0,5.67 -1.18,9.33 -3.55,10.99 -2.36,1.65 -7.09,2.47 -14.18,2.47 -9.93,0 -27.88,-1.05 -53.87,-3.18 -26,-2.13 -59.79,-3.19 -101.38,-3.19 -37.34,0 -65.1,0.82 -83.29,2.48 -18.21,1.65 -28.48,2.48 -30.84,2.48 -10.4,0 -15.6,-4.96 -15.6,-14.89 0,-6.61 2.36,-10.4 7.09,-11.34 4.72,-0.95 11.82,-2.37 21.26,-4.25 8.99,-1.9 15.13,-5.32 18.44,-10.29 3.31,-4.96 4.96,-12.64 4.96,-23.03 v -321.15 c 0,-11.81 -1.89,-19.96 -5.67,-24.45 -3.78,-4.49 -11.11,-7.68 -21.98,-9.57 -8.5,-1.42 -14.53,-2.84 -18.07,-4.26 -3.55,-1.41 -5.33,-4.72 -5.33,-9.92 0,-10.4 4.98,-15.6 14.9,-15.6 3.78,0 14.41,1.07 31.89,3.19 17.49,2.13 41.84,3.19 73.03,3.19 51.51,0 91.56,-1.53 120.16,-4.61 28.59,-3.07 45.72,-4.6 51.39,-4.6 6.61,0 11.34,2.01 14.18,6.02 2.83,4.02 4.72,9.81 5.67,17.37 l 8.51,59.55 c 0.94,5.68 1.65,10.04 2.12,13.12 0.48,3.07 0.71,4.61 0.71,4.61 0,14.65 -4.49,21.97 -13.46,21.97 -3.78,0 -6.98,-1.54 -9.58,-4.61 -2.6,-3.07 -5.08,-7.2 -7.44,-12.4 -2.37,-5.2 -5.32,-11.23 -8.86,-18.08 -3.55,-6.85 -8.39,-14.3 -14.53,-22.33 -8.04,-10.4 -18.08,-18.55 -30.13,-24.46 -12.05,-5.91 -25.18,-8.86 -39.35,-8.86 -12.28,0 -22.1,1.53 -29.42,4.61 -7.32,3.07 -12.75,7.56 -16.3,13.46 -3.54,5.91 -5.79,13.36 -6.74,22.34 -0.94,8.98 -1.41,19.38 -1.41,31.19 v 111.3 c 0,5.67 2.83,8.98 8.5,9.93 l 7.81,1.41 c 3.3,0.48 6.37,0.71 9.2,0.71 2.85,0 5.68,0 8.51,0 15.13,0 26.11,-2.48 32.97,-7.44 6.84,-4.96 12.88,-13.59 18.08,-25.88 4.24,-9.45 7.44,-17.84 9.57,-25.16 2.12,-7.33 6.73,-10.99 13.82,-10.99 8.03,0 12.04,5.2 12.04,15.59 0,8.04 -0.23,18.44 -0.7,31.2 -0.48,12.76 -0.71,27.88 -0.71,45.37 0,16.07 0.48,28.59 1.41,37.57 0.95,8.98 1.43,14.89 1.43,17.72 0,5.2 -1.18,9.22 -3.54,12.05 -2.37,2.84 -5.21,4.26 -8.51,4.26 -3.79,0 -6.62,-1.19 -8.51,-3.55 -1.89,-2.36 -3.55,-5.55 -4.97,-9.57 -1.41,-4.01 -3.06,-8.98 -4.96,-14.89 -1.88,-5.9 -4.96,-12.4 -9.22,-19.49 -3.78,-6.14 -9.92,-10.16 -18.42,-12.05 -8.51,-1.89 -19.86,-2.84 -34.03,-2.84 -10.87,0 -18.55,1.3 -23.03,3.9 -4.5,2.61 -6.74,7.21 -6.74,13.82 v 101.38 c 0,12.29 3.19,21.86 9.57,28.71 6.37,6.86 19.72,10.28 40.05,10.28 28.82,0 49.38,-9.21 61.68,-27.65 8.5,-13.23 14.76,-23.86 18.77,-31.9 4.03,-8.03 9.11,-12.05 15.25,-12.05 5.67,0 8.98,1.89 9.93,5.67 0.94,3.78 1.42,8.98 1.42,15.6 v 73.02"
         style="fill:#249e43;fill-opacity:1;fill-rule:nonzero;stroke:none"
         id="path36" /><path
         d="m 3721.59,3330.8 c 15.02,0 25.29,-2.45 30.76,-7.36 5.49,-4.92 9.11,-13.73 10.84,-26.44 1.16,-8.66 2.6,-14.58 4.34,-17.76 1.73,-3.18 5.77,-4.77 12.13,-4.77 12.71,0 19.06,5.49 19.06,16.47 0,3.46 -1.01,13.14 -3.03,29.03 -2.02,15.89 -3.03,38.57 -3.03,68.03 0,29.47 1.01,52.14 3.03,68.04 2.02,15.89 3.03,25.56 3.03,29.03 0,10.98 -6.06,16.47 -18.19,16.47 -8.1,0 -12.85,-2.61 -14.31,-7.81 -1.44,-5.19 -3.03,-12.42 -4.76,-21.66 -2.31,-9.82 -6.5,-16.61 -12.57,-20.37 -6.07,-3.75 -15.45,-5.63 -28.17,-5.63 h -392.59 c -15.02,0 -25.14,2.17 -30.34,6.5 -5.2,4.33 -8.95,12.28 -11.27,23.84 -1.73,9.24 -3.46,15.74 -5.19,19.49 -1.73,3.76 -5.78,5.64 -12.13,5.64 -12.72,0 -19.07,-5.49 -19.07,-16.47 0,-4.05 1.15,-13.87 3.46,-29.46 2.32,-15.61 3.47,-38.14 3.47,-67.61 0,-29.46 -1.15,-51.99 -3.47,-67.59 -2.31,-15.61 -3.46,-25.43 -3.46,-29.47 0,-10.98 6.65,-16.47 19.93,-16.47 6.93,0 10.98,2.17 12.14,6.5 1.15,4.33 2.59,11.41 4.32,21.24 1.74,10.39 5.78,17.76 12.14,22.09 6.35,4.34 15.89,6.5 28.6,6.5 h 394.33"
         style="fill:#249e43;fill-opacity:1;fill-rule:nonzero;stroke:none"
         id="path38" /><path
         d="m 3780.53,3061.27 c 10.97,3.47 16.46,12.14 16.46,26 0,6.93 -0.43,15.31 -1.3,25.14 -0.87,9.82 -1.3,21.09 -1.3,33.8 0,19.06 0.73,34.37 2.17,45.93 1.44,11.56 2.16,19.64 2.16,24.27 0,10.97 -6.35,16.46 -19.06,16.46 -5.21,0 -8.81,-1.01 -10.83,-3.03 -2.02,-2.02 -3.33,-4.63 -3.91,-7.8 -0.57,-3.18 -1.15,-6.94 -1.73,-11.27 -0.57,-4.33 -1.73,-8.81 -3.46,-13.44 -4.63,-10.39 -11.85,-16.46 -21.67,-18.19 -9.83,-1.74 -24.85,-2.6 -45.07,-2.6 -3.47,0 -7.79,0 -13,0 -5.2,0 -10.98,0.29 -17.33,0.86 l -315.46,14.74 c -11.57,0.57 -20.95,1.44 -28.18,2.6 -7.21,1.15 -12.99,2.74 -17.33,4.77 -4.33,2.02 -7.51,5.05 -9.53,9.09 -2.02,4.05 -3.9,9.25 -5.64,15.6 -2.3,8.67 -4.18,15.03 -5.62,19.07 -1.45,4.04 -5.93,6.07 -13.44,6.07 -10.98,0 -16.46,-6.07 -16.46,-18.2 0,-4.62 0.87,-11.99 2.59,-22.1 1.74,-10.11 2.6,-23.55 2.6,-40.3 0,-15.02 -0.86,-27.45 -2.6,-37.27 -1.72,-9.82 -2.59,-17.62 -2.59,-23.4 0,-13.87 6.06,-20.8 18.2,-20.8 5.19,0 8.81,1.3 10.83,3.9 2.02,2.6 3.32,5.92 3.9,9.97 0.57,4.04 1.15,8.66 1.73,13.86 0.58,5.2 2.03,10.4 4.33,15.61 4.62,10.4 14.44,17.18 29.47,20.36 15.02,3.18 36.98,4.77 65.86,4.77 h 25.14 c 13.29,0 25.71,0 37.26,0 11.56,0 21.96,-0.29 31.21,-0.87 l 171.6,-8.66 c 5.77,0 8.66,-0.59 8.66,-1.74 0,-2.31 -2.02,-4.33 -6.06,-6.07 L 3295.2,3025.74 c -10.98,-3.47 -19.36,-6.94 -25.14,-10.4 -5.77,-3.47 -8.66,-9.25 -8.66,-17.34 0,-6.35 2.89,-11.4 8.66,-15.16 5.78,-3.76 14.44,-7.66 25.99,-11.7 l 338.01,-110.94 c 5.77,-1.73 8.66,-3.46 8.66,-5.2 0,-2.31 -3.17,-3.46 -9.53,-3.46 l -304.2,-1.74 c -13.29,0 -23.11,2.03 -29.47,6.07 -6.35,4.05 -10.68,10.98 -13,20.8 -1.73,9.25 -3.32,16.32 -4.76,21.23 -1.44,4.92 -6.21,7.37 -14.3,7.37 -10.98,0 -16.46,-5.49 -16.46,-16.47 0,-4.04 1.15,-14.3 3.46,-30.76 2.32,-16.47 3.47,-39.44 3.47,-68.9 0,-30.04 -1.15,-53.15 -3.47,-69.34 -2.31,-16.17 -3.46,-26 -3.46,-29.46 0,-10.98 5.48,-16.47 16.46,-16.47 9.25,0 14.3,2.46 15.17,7.37 0.87,4.91 2.16,12.28 3.89,22.1 1.74,9.24 5.93,15.89 12.57,19.93 6.65,4.04 16.61,6.36 29.9,6.93 l 363.14,7.81 h 12.13 c 16.76,0 29.75,-1.3 39,-3.9 9.24,-2.61 15.3,-8.82 18.2,-18.64 1.16,-4.04 1.88,-8.23 2.16,-12.57 0.3,-4.33 0.73,-8.23 1.3,-11.69 0.58,-3.47 1.89,-6.36 3.91,-8.67 2.02,-2.31 5.34,-3.47 9.96,-3.47 13.87,0 20.8,7.22 20.8,21.67 0,6.35 -0.58,14.45 -1.73,24.26 -1.16,9.83 -1.74,21.67 -1.74,35.54 0,12.14 0.15,22.97 0.44,32.5 0.29,9.53 0.43,17.48 0.43,23.83 0,9.82 -1.01,17.19 -3.03,22.1 -2.03,4.91 -6.5,8.52 -13.43,10.83 l -306.8,101.41 c -9.25,2.88 -13.87,5.77 -13.87,8.66 0,2.31 3.75,4.62 11.26,6.94 l 309.41,94.46"
         style="fill:#249e43;fill-opacity:1;fill-rule:nonzero;stroke:none"
         id="path40" /><path
         d="m 3482.39,2411.27 c -5.78,-13.29 -8.66,-27.15 -8.66,-41.6 0,-15.59 4.18,-31.05 12.56,-46.36 8.38,-15.31 20.08,-28.75 35.1,-40.3 15.03,-11.56 33.08,-20.95 54.17,-28.17 21.09,-7.22 44.34,-10.83 69.76,-10.83 50.28,0 88.84,13.86 115.71,41.6 26.86,27.73 40.3,68.75 40.3,123.06 0,16.76 -0.58,37.13 -1.74,61.11 -1.15,23.97 -1.73,51.56 -1.73,82.76 0,13.29 0.43,24.7 1.3,34.23 0.87,9.54 1.3,17.48 1.3,23.84 0,19.06 -6.64,28.6 -19.93,28.6 -7.51,0 -11.99,-2.6 -13.44,-7.8 -1.45,-5.2 -3.32,-12.71 -5.63,-22.54 -2.31,-9.82 -6.5,-16.46 -12.57,-19.93 -6.07,-3.47 -15.45,-5.2 -28.17,-5.2 h -392.59 c -15.02,0 -25.14,2.17 -30.34,6.5 -5.2,4.33 -8.95,12.28 -11.27,23.83 -1.73,9.25 -3.46,15.75 -5.19,19.5 -1.73,3.76 -5.78,5.64 -12.13,5.64 -12.72,0 -19.07,-5.49 -19.07,-16.47 0,-4.04 1.15,-13.87 3.46,-29.47 2.32,-15.6 3.47,-38.13 3.47,-67.6 0,-29.46 -1.15,-52 -3.47,-67.6 -2.31,-15.59 -3.46,-25.42 -3.46,-29.46 0,-10.98 6.65,-16.47 19.93,-16.47 6.93,0 10.98,2.17 12.14,6.5 1.15,4.33 2.59,11.41 4.32,21.23 1.74,10.4 5.78,17.77 12.14,22.1 6.35,4.34 15.89,6.5 28.6,6.5 h 163.79 c 8.1,0 12.14,-1.73 12.14,-5.19 0,-1.16 -0.57,-3.47 -1.73,-6.94 z m 98.8,59.8 h 115.27 c 22.53,0 39.43,-2.16 50.7,-6.5 11.27,-4.33 16.9,-14.3 16.9,-29.9 0,-9.24 -2.75,-18.34 -8.24,-27.3 -5.48,-8.95 -13.43,-16.9 -23.83,-23.83 -10.4,-6.93 -23.26,-12.42 -38.56,-16.47 -15.31,-4.04 -32.8,-6.06 -52.43,-6.06 -36.41,0 -64.43,6.49 -84.08,19.5 -19.63,13 -29.46,30.47 -29.46,52.43 0,17.91 4.77,28.74 14.3,32.5 9.53,3.75 22.67,5.63 39.43,5.63 v 0"
         style="fill:#249e43;fill-opacity:1;fill-rule:nonzero;stroke:none"
         id="path42" /><path
         d="m 3536.99,1928.54 c 8.66,-41.02 24.55,-72.22 47.67,-93.6 23.1,-21.38 51.42,-32.07 84.93,-32.07 42.75,0 75.55,12.86 98.37,38.57 22.82,25.71 34.23,64.57 34.23,116.57 0,20.8 -0.73,45.2 -2.16,73.23 -1.45,28.03 -2.17,59.66 -2.17,94.9 0,11.55 0.43,22.1 1.3,31.63 0.87,9.53 1.3,17.77 1.3,24.71 0,19.06 -6.64,28.59 -19.93,28.59 -7.51,0 -11.99,-2.6 -13.44,-7.8 -1.45,-5.2 -3.32,-12.71 -5.63,-22.53 -2.31,-9.82 -6.5,-16.47 -12.57,-19.93 -6.07,-3.47 -15.45,-5.2 -28.17,-5.2 h -392.59 c -14.45,0 -24.41,2.02 -29.91,6.06 -5.49,4.05 -9.38,11.85 -11.7,23.4 -1.73,9.83 -3.46,16.47 -5.19,19.93 -1.73,3.47 -5.78,5.2 -12.13,5.2 -12.72,0 -19.07,-5.48 -19.07,-16.46 0,-4.05 1.15,-13.87 3.46,-29.47 2.32,-15.6 3.47,-37.55 3.47,-65.86 0,-28.89 -1.15,-51.28 -3.47,-67.17 -2.31,-15.89 -3.46,-25.57 -3.46,-29.03 0,-10.98 6.65,-16.47 19.93,-16.47 7.52,0 11.7,2.31 12.57,6.94 0.87,4.61 2.16,11.84 3.89,21.66 1.74,10.4 5.78,17.48 12.14,21.24 6.35,3.75 15.89,5.63 28.6,5.63 h 175.06 c 8.09,0 12.13,-3.18 12.13,-9.54 v -6.06 c 0,-17.34 -19.06,-33.51 -57.19,-48.54 l -178.53,-70.2 c -13.29,-5.2 -21.23,-9.53 -23.84,-12.99 -2.6,-3.47 -3.89,-8.96 -3.89,-16.48 0,-9.24 0.57,-19.06 1.72,-29.46 1.17,-10.4 1.74,-21.38 1.74,-32.93 0,-15.03 -0.87,-27.01 -2.59,-35.97 -1.74,-8.95 -2.61,-15.46 -2.61,-19.5 0,-4.04 1.59,-7.36 4.77,-9.97 3.18,-2.6 7.07,-3.9 11.7,-3.9 4.62,0 8.09,1.74 10.4,5.2 2.31,3.47 5.05,7.8 8.24,13.01 3.17,5.19 7.64,10.83 13.42,16.89 5.78,6.07 14.15,11.42 25.14,16.04 l 150.8,65.87 c 17.91,8.08 31.63,16.89 41.16,26.43 9.53,9.53 16.9,22.68 22.1,39.43 z m 58.94,114.4 h 103.99 c 21.38,0 37.41,-2.17 48.11,-6.5 10.68,-4.33 16.03,-15.17 16.03,-32.5 0,-10.98 -2.75,-21.24 -8.24,-30.77 -5.48,-9.53 -13,-17.91 -22.53,-25.13 -9.53,-7.22 -20.8,-13 -33.8,-17.34 -13,-4.32 -27.3,-6.49 -42.9,-6.49 -31.2,0 -56.77,8.81 -76.7,26.42 -19.93,17.63 -29.9,41.18 -29.9,70.64 0,10.4 2.6,16.61 7.8,18.63 5.2,2.03 15.32,3.04 30.34,3.04 h 7.8 v 0"
         style="fill:#249e43;fill-opacity:1;fill-rule:nonzero;stroke:none"
         id="path44" /><path
         d="m 3783.99,1384.28 c 6.94,0 11.41,1.43 13.43,4.32 2.02,2.89 3.04,8.68 3.04,17.34 0,12.14 -1.3,34.09 -3.9,65.87 -2.6,31.77 -3.9,73.08 -3.9,123.93 0,45.65 1.01,79.59 3.03,101.84 2.02,22.23 3.03,34.8 3.03,37.69 0,12.72 -6.06,19.07 -18.19,19.07 -8.1,0 -12.72,-2.89 -13.87,-8.67 -1.16,-5.78 -2.89,-14.44 -5.2,-25.99 -2.31,-10.99 -6.5,-18.5 -12.57,-22.54 -6.07,-4.04 -15.45,-6.07 -28.17,-6.07 h -392.59 c -14.45,0 -24.41,2.32 -29.91,6.94 -5.49,4.62 -9.38,13.57 -11.7,26.86 -1.73,10.4 -3.46,17.77 -5.19,22.1 -1.73,4.34 -5.78,6.51 -12.13,6.51 -12.72,0 -19.07,-6.07 -19.07,-18.21 0,-4.62 1.3,-17.61 3.9,-39 2.6,-21.38 3.9,-51.13 3.9,-89.26 0,-62.98 -1.88,-111.95 -5.64,-146.9 -3.75,-34.96 -5.63,-55.9 -5.63,-62.83 0,-8.1 2.46,-13.87 7.37,-17.34 4.91,-3.47 11.99,-5.78 21.23,-6.93 l 72.8,-10.4 c 6.93,-1.16 12.28,-2.02 16.03,-2.6 3.76,-0.58 5.64,-0.87 5.64,-0.87 17.91,0 26.86,5.49 26.86,16.47 0,4.61 -1.87,8.52 -5.63,11.69 -3.75,3.19 -8.81,6.22 -15.17,9.11 -6.36,2.89 -13.72,6.5 -22.1,10.84 -8.38,4.32 -17.48,10.25 -27.29,17.76 -12.72,9.81 -22.68,22.1 -29.91,36.83 -7.22,14.73 -10.83,30.77 -10.83,48.1 0,15.02 1.88,27.01 5.63,35.97 3.76,8.95 9.25,15.59 16.46,19.93 7.23,4.34 16.33,7.08 27.31,8.23 10.98,1.15 23.69,1.74 38.13,1.74 h 136.07 c 6.93,0 10.97,-3.47 12.13,-10.4 l 1.74,-9.54 c 0.57,-4.04 0.86,-7.79 0.86,-11.26 0,-3.47 0,-6.93 0,-10.4 0,-18.5 -3.03,-31.93 -9.1,-40.3 -6.06,-8.38 -16.61,-15.75 -31.63,-22.1 -11.56,-5.2 -21.81,-9.11 -30.77,-11.7 -8.95,-2.6 -13.43,-8.24 -13.43,-16.91 0,-9.81 6.35,-14.72 19.07,-14.72 9.82,0 22.53,0.28 38.13,0.86 15.6,0.58 34.09,0.86 55.47,0.86 19.64,0 34.95,-0.57 45.93,-1.72 10.97,-1.16 18.2,-1.74 21.67,-1.74 6.35,0 11.27,1.44 14.73,4.33 3.47,2.89 5.2,6.36 5.2,10.4 0,4.62 -1.45,8.09 -4.34,10.4 -2.89,2.32 -6.79,4.34 -11.7,6.07 -4.91,1.74 -10.97,3.76 -18.2,6.06 -7.22,2.32 -15.16,6.08 -23.83,11.27 -7.51,4.62 -12.42,12.14 -14.73,22.54 -2.31,10.39 -3.47,24.26 -3.47,41.59 0,13.29 1.59,22.68 4.76,28.18 3.19,5.49 8.82,8.23 16.91,8.23 h 123.93 c 15.02,0 26.72,-3.91 35.1,-11.7 8.38,-7.8 12.57,-24.13 12.57,-48.97 0,-35.25 -11.27,-60.37 -33.8,-75.4 -16.18,-10.4 -29.18,-18.06 -39,-22.96 -9.83,-4.92 -14.74,-11.13 -14.74,-18.64 0,-6.93 2.32,-10.97 6.93,-12.13 4.63,-1.16 10.99,-1.73 19.08,-1.73 h 89.26"
         style="fill:#249e43;fill-opacity:1;fill-rule:nonzero;stroke:none"
         id="path46" /><path
         d="m 3745.86,1020.27 h 8.66 c 8.1,0 14.59,0.58 19.5,1.74 4.92,1.15 9.68,4.04 14.3,8.66 5.78,6.36 11.56,18.49 17.33,36.4 5.79,17.91 8.68,38.71 8.68,62.4 0,22.53 -4.19,44.06 -12.57,64.57 -8.38,20.51 -20.08,38.57 -35.1,54.16 -15.03,15.61 -33.08,27.88 -54.17,36.84 -21.08,8.95 -44.05,13.44 -68.9,13.44 -20.22,0 -38.13,-2.61 -53.73,-7.81 -15.6,-5.2 -29.9,-12.71 -42.9,-22.54 -13,-9.81 -24.99,-22.23 -35.96,-37.26 -10.98,-15.02 -21.67,-32.35 -32.07,-51.99 -8.67,-16.76 -17.05,-31.5 -25.14,-44.2 -8.09,-12.72 -16.61,-23.26 -25.57,-31.64 -8.95,-8.38 -18.77,-14.73 -29.46,-19.07 -10.69,-4.33 -23.25,-6.5 -37.71,-6.5 -26.57,0 -48.09,8.53 -64.56,25.57 -16.46,17.05 -24.69,40.02 -24.69,68.9 0,45.65 27.44,75.98 82.33,91 19.64,5.78 35.38,9.53 47.23,11.27 11.84,1.73 17.76,6.64 17.76,14.73 0,10.4 -6.35,15.6 -19.06,15.6 h -72.8 c -15.02,0 -26.43,-0.44 -34.23,-1.3 -7.81,-0.87 -14.3,-3.9 -19.5,-9.1 -4.05,-4.04 -8.24,-9.97 -12.56,-17.76 -4.34,-7.81 -8.38,-17.05 -12.14,-27.74 -3.76,-10.69 -6.79,-22.24 -9.1,-34.67 -2.31,-12.42 -3.47,-25.56 -3.47,-39.43 0,-27.16 4.91,-52.15 14.74,-74.97 9.82,-22.82 23.25,-42.61 40.29,-59.37 17.05,-16.74 37.26,-29.75 60.67,-38.99 23.4,-9.249 48.67,-13.87 75.83,-13.87 20.8,0 39.58,2.75 56.34,8.242 16.75,5.478 32.21,13.568 46.36,24.258 14.16,10.69 27.45,23.98 39.87,39.87 12.42,15.89 24.41,34.52 35.97,55.9 6.93,12.71 13,24.69 18.19,35.96 5.21,11.27 10.98,21.1 17.34,29.46 6.35,8.38 13.86,15.03 22.53,19.95 8.67,4.91 20.51,7.36 35.53,7.36 21.96,0 39.87,-6.79 53.74,-20.37 13.87,-13.58 20.79,-30.76 20.79,-51.56 0,-22.53 -6.21,-38.72 -18.63,-48.54 -12.42,-9.82 -30.76,-18.78 -55.03,-26.86 -13.87,-4.62 -25.14,-8.67 -33.8,-12.13 -8.67,-3.47 -13,-8.96 -13,-16.47 0,-8.09 6.07,-12.14 18.2,-12.14 h 73.67"
         style="fill:#249e43;fill-opacity:1;fill-rule:nonzero;stroke:none"
         id="path48" /><path
         d="m 3783.99,567.012 c 6.94,0 11.41,1.449 13.43,4.328 2.02,2.89 3.04,8.672 3.04,17.332 0,12.137 -1.3,34.09 -3.9,65.867 -2.6,31.781 -3.9,73.09 -3.9,123.941 0,45.641 1.01,79.59 3.03,101.829 2.02,22.242 3.03,34.812 3.03,37.703 0,12.707 -6.06,19.066 -18.19,19.066 -8.1,0 -12.72,-2.887 -13.87,-8.668 -1.16,-5.781 -2.89,-14.449 -5.2,-26 -2.31,-10.98 -6.5,-18.488 -12.57,-22.539 -6.07,-4.043 -15.45,-6.062 -28.17,-6.062 h -392.59 c -14.45,0 -24.41,2.312 -29.91,6.929 -5.49,4.621 -9.38,13.582 -11.7,26.871 -1.73,10.403 -3.46,17.762 -5.19,22.102 -1.73,4.328 -5.78,6.5 -12.13,6.5 -12.72,0 -19.07,-6.07 -19.07,-18.199 0,-4.621 1.3,-17.621 3.9,-39.012 2.6,-21.371 3.9,-51.129 3.9,-89.25 0,-62.98 -1.88,-111.961 -5.64,-146.91 -3.75,-34.961 -5.63,-55.899 -5.63,-62.828 0,-8.09 2.46,-13.871 7.37,-17.332 4.91,-3.469 11.99,-5.789 21.23,-6.942 l 72.8,-10.398 c 6.93,-1.149 12.28,-2.02 16.03,-2.602 3.76,-0.566 5.64,-0.867 5.64,-0.867 17.91,0 26.86,5.488 26.86,16.469 0,4.629 -1.87,8.519 -5.63,11.699 -3.75,3.18 -8.81,6.211 -15.17,9.102 -6.36,2.89 -13.72,6.5 -22.1,10.839 -8.38,4.329 -17.48,10.25 -27.29,17.758 -12.72,9.821 -22.68,22.102 -29.91,36.832 -7.22,14.739 -10.83,30.77 -10.83,48.11 0,15.011 1.88,27.011 5.63,35.961 3.76,8.961 9.25,15.597 16.46,19.929 7.23,4.34 16.33,7.078 27.31,8.239 10.98,1.152 23.69,1.73 38.13,1.73 h 136.07 c 6.93,0 10.97,-3.461 12.13,-10.398 l 1.74,-9.539 c 0.57,-4.043 0.86,-7.793 0.86,-11.262 0,-3.461 0,-6.93 0,-10.399 0,-18.48 -3.03,-31.921 -9.1,-40.3 -6.06,-8.379 -16.61,-15.743 -31.63,-22.102 -11.56,-5.187 -21.81,-9.098 -30.77,-11.699 -8.95,-2.602 -13.43,-8.231 -13.43,-16.899 0,-9.82 6.35,-14.73 19.07,-14.73 9.82,0 22.53,0.277 38.13,0.859 15.6,0.59 34.09,0.871 55.47,0.871 19.64,0 34.95,-0.582 45.93,-1.73 10.97,-1.16 18.2,-1.742 21.67,-1.742 6.35,0 11.27,1.453 14.73,4.34 3.47,2.89 5.2,6.363 5.2,10.402 0,4.617 -1.45,8.078 -4.34,10.398 -2.89,2.313 -6.79,4.332 -11.7,6.063 -4.91,1.738 -10.97,3.758 -18.2,6.066 -7.22,2.313 -15.16,6.071 -23.83,11.274 -7.51,4.617 -12.42,12.136 -14.73,22.539 -2.31,10.39 -3.47,24.25 -3.47,41.59 0,13.289 1.59,22.668 4.76,28.168 3.19,5.492 8.82,8.23 16.91,8.23 h 123.93 c 15.02,0 26.72,-3.898 35.1,-11.687 8.38,-7.813 12.57,-24.141 12.57,-48.981 0,-35.242 -11.27,-60.371 -33.8,-75.402 -16.18,-10.399 -29.18,-18.059 -39,-22.957 -9.83,-4.91 -14.74,-11.121 -14.74,-18.633 0,-6.938 2.32,-10.981 6.93,-12.141 4.63,-1.148 10.99,-1.726 19.08,-1.726 h 89.26"
         style="fill:#249e43;fill-opacity:1;fill-rule:nonzero;stroke:none"
         id="path50" /><path
         d="m 223.395,378.781 c 0,6.789 1.109,11.418 3.328,13.91 2.218,2.481 6.207,4.11 11.949,4.887 3.918,0.531 6.598,1.184 8.031,1.961 1.438,0.781 2.152,2.621 2.152,5.492 0,5.739 -2.476,8.61 -7.441,8.61 -1.828,0 -6.137,-0.461 -12.93,-1.36 -6.789,-0.922 -16.32,-1.383 -28.597,-1.383 -13.321,0 -23.574,0.461 -30.754,1.383 -7.184,0.899 -11.559,1.36 -13.121,1.36 -4.965,0 -7.449,-2.871 -7.449,-8.61 0,-3.402 1.109,-5.359 3.332,-5.883 2.222,-0.519 5.546,-1.308 9.992,-2.347 4.437,-1.051 7.508,-2.942 9.207,-5.68 1.695,-2.742 2.543,-6.992 2.543,-12.73 V 245.582 c 0,-12.543 0.586,-23.441 1.761,-32.723 1.18,-9.269 4.508,-17.687 9.993,-25.269 7.574,-9.918 17.375,-17.102 29.382,-21.551 12.012,-4.437 27.036,-6.66 45.055,-6.66 16.457,0 30.492,2.551 42.113,7.641 11.629,5.101 20.575,12.468 26.844,22.14 5.746,9.141 9.074,19.328 9.988,30.559 0.915,11.23 1.372,24.551 1.372,39.961 v 46.621 c 0,24.551 0.39,44.07 1.171,58.57 0.789,14.488 3.004,23.957 6.664,28.399 1.567,1.839 3.657,2.941 6.266,3.332 2.613,0.386 5.094,0.66 7.442,0.777 2.355,0.141 4.382,0.73 6.078,1.769 1.699,1.043 2.547,3.133 2.547,6.27 0,2.871 -0.786,4.891 -2.352,6.07 -1.57,1.184 -4.313,1.762 -8.231,1.762 -3.39,0 -7.312,-0.262 -11.75,-0.781 -4.441,-0.52 -9.273,-0.778 -14.5,-0.778 -6.527,0 -12.14,0.258 -16.843,0.778 -4.699,0.519 -8.489,0.781 -11.36,0.781 -7.054,0 -10.574,-2.609 -10.574,-7.832 0,-3.137 0.844,-5.227 2.543,-6.27 1.699,-1.039 3.723,-1.699 6.07,-1.957 2.352,-0.261 4.77,-0.589 7.25,-0.98 2.481,-0.391 4.5,-1.5 6.071,-3.332 3.656,-4.438 5.941,-13.84 6.859,-28.199 0.914,-14.371 1.371,-33.828 1.371,-58.379 v -48.192 c 0,-13.578 -0.457,-25.199 -1.371,-34.871 -0.918,-9.66 -3.594,-17.886 -8.031,-24.679 -9.406,-13.84 -24.027,-20.758 -43.883,-20.758 -9.926,0 -17.953,1.558 -24.098,4.699 -6.136,3.129 -11.035,7.77 -14.687,13.91 -3.656,6.141 -6.141,13.711 -7.445,22.719 -1.305,9.012 -1.957,19.519 -1.957,31.531 v 128.121"
         style="fill:#249e43;fill-opacity:1;fill-rule:nonzero;stroke:none"
         id="path52" /><path
         d="m 570.117,356.441 c 0,12.539 0.653,21.95 1.957,28.219 1.305,6.27 4.18,10.18 8.617,11.75 2.614,1.039 5.032,1.699 7.247,1.961 2.222,0.258 4.05,0.578 5.492,0.981 1.433,0.386 2.547,0.968 3.328,1.757 0.781,0.782 1.176,2.219 1.176,4.309 0,5.742 -2.875,8.621 -8.621,8.621 -3.137,0 -5.875,-0.328 -8.223,-0.98 -2.356,-0.661 -4.188,-0.981 -5.488,-0.981 -0.524,0 -1.829,-0.066 -3.918,-0.199 -2.094,-0.117 -5.356,-0.188 -9.793,-0.188 -4.18,0 -7.379,0.071 -9.602,0.188 -2.223,0.133 -3.594,0.199 -4.113,0.199 -1.828,0 -4.113,0.32 -6.86,0.981 -2.738,0.652 -5.941,0.98 -9.597,0.98 -6.524,0 -9.789,-2.879 -9.789,-8.621 0,-2.348 0.586,-3.977 1.761,-4.887 1.176,-0.922 2.739,-1.511 4.704,-1.769 1.957,-0.262 4.242,-0.532 6.855,-0.782 2.609,-0.269 5.352,-1.05 8.227,-2.359 4.437,-2.09 7.378,-6.133 8.812,-12.141 1.438,-6.011 2.152,-15.011 2.152,-27.039 V 273 c 0,-3.648 -1.039,-5.48 -3.128,-5.48 -1.043,0 -2.352,1.171 -3.918,3.519 l -86.59,134.379 c -2.082,3.133 -3.785,5.164 -5.086,6.07 -1.309,0.91 -3.528,1.371 -6.664,1.371 -1.571,0 -4.504,-0.129 -8.817,-0.39 -4.308,-0.258 -9.855,-0.391 -16.644,-0.391 -11.5,0 -20.114,0.262 -25.86,0.781 -5.746,0.532 -9.14,0.782 -10.191,0.782 -4.961,0 -7.441,-2.871 -7.441,-8.61 0,-2.351 0.523,-3.992 1.57,-4.902 1.043,-0.91 2.414,-1.5 4.109,-1.758 1.699,-0.262 3.532,-0.461 5.489,-0.59 1.957,-0.133 3.851,-0.59 5.679,-1.371 3.656,-1.832 5.942,-5.23 6.856,-10.191 0.918,-4.957 1.371,-11.75 1.371,-20.367 V 223.629 c 0,-12.527 -0.656,-21.93 -1.957,-28.199 -1.305,-6.27 -4.18,-10.192 -8.617,-11.758 -2.614,-1.043 -4.969,-1.703 -7.059,-1.953 -2.09,-0.27 -3.914,-0.528 -5.48,-0.778 -1.567,-0.269 -2.743,-0.851 -3.528,-1.773 -0.781,-0.918 -1.172,-2.418 -1.172,-4.496 0,-5.75 2.871,-8.633 8.617,-8.633 2.348,0 5.75,0.402 10.188,1.18 4.437,0.793 10.184,1.179 17.234,1.179 7.051,0 13.059,-0.386 18.024,-1.179 4.961,-0.778 8.883,-1.18 11.754,-1.18 6.793,0 10.183,2.883 10.183,8.633 0,2.34 -0.652,3.969 -1.957,4.887 -1.304,0.921 -3.004,1.441 -5.093,1.57 -2.09,0.133 -4.442,0.32 -7.051,0.59 -2.614,0.25 -5.223,1.043 -7.836,2.34 -4.446,2.089 -7.317,6.211 -8.617,12.351 -1.309,6.141 -1.957,15.211 -1.957,27.219 v 130.07 c 0,3.66 0.386,5.492 1.168,5.492 1.046,0 2.222,-0.781 3.531,-2.351 l 117.14,-185.309 c 2.875,-4.699 5.551,-8.551 8.032,-11.562 2.48,-3 5.55,-4.5 9.211,-4.5 6.785,0 10.183,6.269 10.183,18.812 v 182.16"
         style="fill:#249e43;fill-opacity:1;fill-rule:nonzero;stroke:none"
         id="path54" /><path
         d="m 688.434,378.781 c 0,6.789 1.109,11.418 3.328,13.91 2.222,2.481 6.203,4.11 11.949,4.887 3.918,0.531 6.598,1.184 8.031,1.961 1.438,0.781 2.153,2.621 2.153,5.492 0,5.739 -2.477,8.61 -7.442,8.61 -1.566,0 -5.945,-0.461 -13.125,-1.36 -7.18,-0.922 -17.433,-1.383 -30.754,-1.383 -13.32,0 -23.57,0.461 -30.754,1.383 -7.179,0.899 -11.554,1.36 -13.125,1.36 -4.961,0 -7.441,-2.743 -7.441,-8.223 0,-3.656 1.172,-5.809 3.527,-6.469 2.348,-0.648 5.614,-1.371 9.793,-2.148 4.442,-1.051 7.504,-2.942 9.203,-5.68 1.703,-2.742 2.547,-6.992 2.547,-12.73 V 200.91 c 0,-6.789 -0.976,-11.359 -2.933,-13.711 -1.961,-2.347 -5.555,-4.051 -10.778,-5.09 -4.175,-0.781 -7.117,-1.57 -8.812,-2.347 -1.699,-0.793 -2.547,-2.614 -2.547,-5.481 0,-5.75 2.48,-8.633 7.441,-8.633 1.832,0 6.27,0.524 13.321,1.571 7.05,1.043 17.238,1.57 30.558,1.57 13.321,0 23.512,-0.527 30.555,-1.57 7.059,-1.047 11.496,-1.571 13.324,-1.571 4.965,0 7.442,3 7.442,9.024 0,3.129 -0.973,4.957 -2.938,5.476 -1.957,0.524 -5.156,1.18 -9.594,1.961 -4.703,0.782 -8.035,2.61 -9.992,5.481 -1.957,2.879 -2.937,7.191 -2.937,12.93 v 178.261"
         style="fill:#249e43;fill-opacity:1;fill-rule:nonzero;stroke:none"
         id="path56" /><path
         d="m 793.816,379.949 c -0.519,1.313 -0.91,2.551 -1.175,3.723 -0.258,1.18 -0.391,2.289 -0.391,3.328 0,2.621 1.18,4.441 3.527,5.488 2.348,1.043 4.899,1.953 7.641,2.742 2.742,0.79 5.289,1.899 7.637,3.329 2.351,1.441 3.523,3.992 3.523,7.64 0,4.961 -2.738,7.442 -8.223,7.442 -2.875,0 -7.835,-0.461 -14.886,-1.36 -7.055,-0.922 -16.453,-1.383 -28.207,-1.383 -12.539,0 -22.071,0.461 -28.606,1.383 -6.527,0.899 -10.574,1.36 -12.14,1.36 -2.086,0 -3.786,-0.782 -5.094,-2.34 -1.305,-1.571 -1.957,-3.403 -1.957,-5.492 0,-2.348 0.453,-4.11 1.371,-5.278 0.914,-1.179 2.152,-2.09 3.723,-2.75 1.566,-0.652 3.265,-1.312 5.089,-1.961 1.832,-0.648 3.661,-1.769 5.489,-3.332 2.871,-2.09 5.351,-6.199 7.441,-12.34 2.09,-6.136 4.828,-14.039 8.231,-23.707 l 47.402,-138.293 c 3.394,-10.179 6.203,-18.867 8.426,-26.046 2.218,-7.192 4.176,-13.063 5.875,-17.641 1.699,-4.563 3.39,-7.891 5.093,-9.981 1.692,-2.089 3.985,-3.128 6.856,-3.128 2.875,0 5.285,1.238 7.242,3.718 1.961,2.481 3.922,6.328 5.883,11.551 1.957,5.231 4.109,11.891 6.465,19.981 2.347,8.097 5.48,17.757 9.402,29 l 39.57,115.179 c 4.961,14.098 9.141,25.391 12.54,33.891 3.386,8.476 7.046,14.156 10.964,17.039 1.828,1.559 3.786,2.668 5.875,3.328 2.094,0.652 3.922,1.301 5.485,1.949 1.566,0.66 2.875,1.571 3.922,2.75 1.043,1.184 1.566,3.063 1.566,5.68 0,5.223 -3.262,7.832 -9.797,7.832 -2.867,0 -6.332,-0.262 -10.379,-0.781 -4.047,-0.52 -8.687,-0.778 -13.91,-0.778 -6.008,0 -11.035,0.258 -15.086,0.778 -4.047,0.519 -7.504,0.781 -10.375,0.781 -6.535,0 -9.801,-2.609 -9.801,-7.832 0,-3.137 1.18,-5.348 3.528,-6.656 2.347,-1.313 4.961,-2.422 7.836,-3.332 2.879,-0.918 5.484,-2.16 7.839,-3.719 2.348,-1.57 3.524,-4.18 3.524,-7.84 0,-1.832 -0.328,-4.633 -0.977,-8.422 -0.656,-3.789 -1.765,-8.289 -3.336,-13.519 L 843.184,254.199 c -0.262,-1.84 -1.438,-2.75 -3.532,-2.75 -1.562,0 -2.48,0.789 -2.738,2.352 l -43.098,126.148"
         style="fill:#249e43;fill-opacity:1;fill-rule:nonzero;stroke:none"
         id="path58" /><path
         d="m 1090,406.98 c 0,3.141 -0.65,5.168 -1.96,6.079 -1.3,0.91 -3.91,1.371 -7.83,1.371 -5.49,0 -15.41,-0.59 -29.78,-1.758 -14.37,-1.184 -33.04,-1.774 -56.028,-1.774 -20.629,0 -35.972,0.461 -46.027,1.383 -10.059,0.899 -15.738,1.36 -17.043,1.36 -5.746,0 -8.621,-2.743 -8.621,-8.223 0,-3.656 1.309,-5.746 3.922,-6.27 2.609,-0.519 6.527,-1.308 11.75,-2.347 4.961,-1.051 8.359,-2.942 10.187,-5.68 1.828,-2.742 2.743,-6.992 2.743,-12.73 V 200.91 c 0,-6.531 -1.043,-11.039 -3.133,-13.519 -2.09,-2.481 -6.137,-4.243 -12.149,-5.282 -4.699,-0.781 -8.027,-1.57 -9.984,-2.347 -1.965,-0.793 -2.942,-2.614 -2.942,-5.481 0,-5.75 2.747,-8.633 8.227,-8.633 2.09,0 7.965,0.59 17.629,1.762 9.66,1.18 23.113,1.77 40.352,1.77 28.467,0 50.607,-0.852 66.407,-2.551 15.8,-1.699 25.27,-2.539 28.41,-2.539 3.65,0 6.27,1.101 7.83,3.32 1.57,2.231 2.62,5.418 3.14,9.602 l 4.69,32.91 c 0.53,3.137 0.92,5.547 1.18,7.25 0.27,1.699 0.39,2.547 0.39,2.547 0,8.09 -2.48,12.14 -7.44,12.14 -2.09,0 -3.85,-0.839 -5.29,-2.539 -1.43,-1.699 -2.8,-3.992 -4.11,-6.859 -1.31,-2.871 -2.94,-6.199 -4.9,-9.992 -1.96,-3.789 -4.63,-7.899 -8.03,-12.34 -4.44,-5.75 -9.99,-10.258 -16.65,-13.52 -6.66,-3.257 -13.91,-4.89 -21.75,-4.89 -6.79,0 -12.21,0.851 -16.26,2.543 -4.04,1.699 -7.05,4.187 -9.01,7.449 -1.96,3.258 -3.19,7.367 -3.72,12.328 -0.52,4.973 -0.78,10.723 -0.78,17.25 v 61.5 c 0,3.141 1.57,4.961 4.7,5.492 l 4.31,0.778 c 1.83,0.273 3.53,0.39 5.09,0.39 1.57,0 3.13,0 4.7,0 8.36,0 14.44,-1.359 18.22,-4.109 3.79,-2.738 7.12,-7.512 9.99,-14.301 2.35,-5.219 4.11,-9.859 5.29,-13.91 1.17,-4.039 3.72,-6.07 7.64,-6.07 4.44,0 6.66,2.882 6.66,8.621 0,4.441 -0.13,10.179 -0.39,17.23 -0.26,7.051 -0.39,15.41 -0.39,25.078 0,8.883 0.26,15.801 0.78,20.762 0.53,4.961 0.79,8.238 0.79,9.801 0,2.867 -0.65,5.09 -1.96,6.66 -1.31,1.57 -2.88,2.348 -4.7,2.348 -2.1,0 -3.67,-0.649 -4.71,-1.957 -1.04,-1.313 -1.95,-3.071 -2.74,-5.293 -0.79,-2.219 -1.7,-4.957 -2.74,-8.231 -1.05,-3.258 -2.75,-6.848 -5.1,-10.769 -2.09,-3.399 -5.48,-5.61 -10.18,-6.661 -4.71,-1.039 -10.97,-1.57 -18.81,-1.57 -6,0 -10.25,0.723 -12.73,2.16 -2.48,1.434 -3.72,3.981 -3.72,7.633 v 56.027 c 0,6.801 1.76,12.082 5.29,15.872 3.52,3.789 10.9,5.671 22.13,5.671 15.93,0 27.29,-5.082 34.09,-15.273 4.7,-7.309 8.16,-13.188 10.38,-17.629 2.22,-4.437 5.03,-6.66 8.43,-6.66 3.13,0 4.96,1.051 5.48,3.141 0.52,2.089 0.78,4.96 0.78,8.609 v 40.351"
         style="fill:#249e43;fill-opacity:1;fill-rule:nonzero;stroke:none"
         id="path60" /><path
         d="m 1244.36,295.328 c 18.55,3.922 32.65,11.102 42.31,21.543 9.67,10.449 14.5,23.25 14.5,38.399 0,19.332 -5.81,34.152 -17.43,44.468 -11.63,10.321 -29.19,15.473 -52.7,15.473 -9.4,0 -20.44,-0.332 -33.11,-0.973 -12.66,-0.66 -26.96,-0.988 -42.9,-0.988 -5.22,0 -9.99,0.199 -14.29,0.59 -4.31,0.398 -8.03,0.59 -11.17,0.59 -8.62,0 -12.93,-3 -12.93,-9.012 0,-3.398 1.18,-5.418 3.53,-6.066 2.35,-0.661 5.74,-1.512 10.18,-2.551 4.44,-1.051 7.45,-2.942 9.02,-5.68 1.56,-2.742 2.34,-6.992 2.34,-12.73 V 200.91 c 0,-6.531 -0.91,-11.039 -2.74,-13.519 -1.83,-2.481 -5.35,-4.243 -10.58,-5.282 -4.43,-0.781 -7.44,-1.57 -9.01,-2.347 -1.56,-0.793 -2.35,-2.614 -2.35,-5.481 0,-5.75 2.48,-8.633 7.45,-8.633 1.82,0 6.26,0.524 13.32,1.571 7.05,1.043 16.98,1.57 29.77,1.57 13.06,0 23.18,-0.527 30.36,-1.57 7.19,-1.047 11.56,-1.571 13.13,-1.571 4.96,0 7.44,3 7.44,9.024 0,3.387 -1.04,5.277 -3.13,5.668 -2.09,0.39 -5.36,0.988 -9.8,1.769 -4.7,0.782 -7.9,2.61 -9.59,5.481 -1.7,2.879 -2.55,7.191 -2.55,12.93 v 79.14 c 0,3.66 1.44,5.488 4.31,5.488 h 2.74 c 7.84,0 15.15,-8.628 21.94,-25.859 l 31.74,-80.711 c 2.34,-6 4.31,-9.598 5.87,-10.769 1.57,-1.18 4.05,-1.77 7.45,-1.77 4.18,0 8.61,0.27 13.32,0.793 4.7,0.52 9.66,0.777 14.88,0.777 6.8,0 12.22,-0.39 16.26,-1.168 4.05,-0.793 6.99,-1.179 8.82,-1.179 1.83,0 3.33,0.726 4.5,2.148 1.18,1.449 1.77,3.199 1.77,5.289 0,2.09 -0.78,3.66 -2.35,4.711 -1.57,1.039 -3.53,2.289 -5.88,3.719 -2.35,1.441 -4.9,3.461 -7.64,6.07 -2.74,2.61 -5.16,6.403 -7.25,11.36 l -29.77,68.171 c -3.66,8.09 -7.64,14.301 -11.95,18.61 -4.31,4.308 -10.26,7.64 -17.83,9.988 z m -51.71,26.641 v 47.011 c 0,9.668 0.97,16.918 2.94,21.739 1.95,4.84 6.85,7.261 14.69,7.261 4.96,0 9.59,-1.242 13.9,-3.73 4.31,-2.48 8.1,-5.871 11.36,-10.18 3.27,-4.308 5.88,-9.398 7.84,-15.281 1.96,-5.879 2.94,-12.348 2.94,-19.398 0,-14.102 -3.99,-25.661 -11.95,-34.661 -7.97,-9.019 -18.61,-13.519 -31.93,-13.519 -4.7,0 -7.51,1.168 -8.42,3.527 -0.91,2.34 -1.37,6.91 -1.37,13.711 v 3.52 0"
         style="fill:#249e43;fill-opacity:1;fill-rule:nonzero;stroke:none"
         id="path62" /><path
         d="m 1464.54,389.75 v 3.91 c 0,3.66 -0.26,6.602 -0.79,8.82 -0.52,2.219 -1.82,4.379 -3.91,6.461 -2.88,2.61 -8.36,5.227 -16.46,7.84 -8.09,2.61 -17.5,3.91 -28.2,3.91 -10.19,0 -19.92,-1.89 -29.19,-5.671 -9.27,-3.79 -17.44,-9.071 -24.49,-15.872 -7.05,-6.789 -12.6,-14.949 -16.65,-24.476 -4.05,-9.543 -6.07,-19.922 -6.07,-31.152 0,-9.149 1.18,-17.239 3.52,-24.29 2.35,-7.05 5.75,-13.519 10.2,-19.402 4.43,-5.879 10.05,-11.297 16.84,-16.258 6.79,-4.961 14.62,-9.789 23.5,-14.492 7.58,-3.906 14.24,-7.699 19.99,-11.367 5.74,-3.652 10.5,-7.512 14.29,-11.551 3.79,-4.051 6.66,-8.48 8.62,-13.32 1.96,-4.828 2.94,-10.512 2.94,-17.039 0,-12.012 -3.85,-21.742 -11.56,-29.192 -7.7,-7.441 -18.08,-11.16 -31.14,-11.16 -20.63,0 -34.35,12.403 -41.14,37.223 -2.61,8.867 -4.31,15.988 -5.09,21.34 -0.79,5.359 -3,8.039 -6.66,8.039 -4.7,0 -7.05,-2.871 -7.05,-8.621 v -32.91 c 0,-6.79 0.2,-11.95 0.59,-15.469 0.39,-3.531 1.76,-6.473 4.11,-8.821 1.83,-1.832 4.5,-3.718 8.03,-5.679 3.52,-1.961 7.7,-3.781 12.54,-5.481 4.83,-1.699 10.05,-3.082 15.67,-4.109 5.61,-1.063 11.56,-1.582 17.82,-1.582 12.28,0 23.57,2.223 33.89,6.66 10.32,4.449 19.26,10.512 26.84,18.223 7.58,7.699 13.45,16.84 17.63,27.429 4.18,10.579 6.27,22 6.27,34.278 0,9.402 -1.24,17.89 -3.72,25.472 -2.48,7.559 -6.14,14.559 -10.97,20.95 -4.84,6.398 -10.84,12.398 -18.03,18.019 -7.18,5.621 -15.6,11.031 -25.26,16.258 -5.75,3.133 -11.17,5.883 -16.26,8.23 -5.1,2.352 -9.54,4.961 -13.32,7.832 -3.79,2.879 -6.8,6.27 -9.01,10.188 -2.23,3.922 -3.33,9.281 -3.33,16.062 0,9.93 3.06,18.02 9.2,24.29 6.14,6.269 13.91,9.41 23.31,9.41 10.19,0 17.5,-2.821 21.94,-8.43 4.44,-5.621 8.49,-13.91 12.15,-24.879 2.09,-6.262 3.91,-11.351 5.48,-15.281 1.57,-3.91 4.05,-5.871 7.44,-5.871 3.66,0 5.49,2.742 5.49,8.222 v 33.309"
         style="fill:#249e43;fill-opacity:1;fill-rule:nonzero;stroke:none"
         id="path64" /><path
         d="m 1582.86,378.781 c 0,6.789 1.1,11.418 3.33,13.91 2.22,2.481 6.2,4.11 11.94,4.887 3.92,0.531 6.6,1.184 8.04,1.961 1.43,0.781 2.16,2.621 2.16,5.492 0,5.739 -2.49,8.61 -7.45,8.61 -1.57,0 -5.94,-0.461 -13.13,-1.36 -7.18,-0.922 -17.43,-1.383 -30.75,-1.383 -13.32,0 -23.57,0.461 -30.75,1.383 -7.19,0.899 -11.56,1.36 -13.13,1.36 -4.96,0 -7.44,-2.743 -7.44,-8.223 0,-3.656 1.17,-5.809 3.52,-6.469 2.35,-0.648 5.62,-1.371 9.8,-2.148 4.44,-1.051 7.5,-2.942 9.2,-5.68 1.7,-2.742 2.55,-6.992 2.55,-12.73 V 200.91 c 0,-6.789 -0.98,-11.359 -2.94,-13.711 -1.96,-2.347 -5.54,-4.051 -10.77,-5.09 -4.18,-0.781 -7.12,-1.57 -8.82,-2.347 -1.7,-0.793 -2.54,-2.614 -2.54,-5.481 0,-5.75 2.48,-8.633 7.44,-8.633 1.83,0 6.27,0.524 13.32,1.571 7.06,1.043 17.24,1.57 30.56,1.57 13.32,0 23.51,-0.527 30.56,-1.57 7.05,-1.047 11.49,-1.571 13.32,-1.571 4.96,0 7.45,3 7.45,9.024 0,3.129 -0.99,4.957 -2.95,5.476 -1.96,0.524 -5.16,1.18 -9.59,1.961 -4.71,0.782 -8.04,2.61 -9.99,5.481 -1.96,2.879 -2.94,7.191 -2.94,12.93 v 178.261"
         style="fill:#249e43;fill-opacity:1;fill-rule:nonzero;stroke:none"
         id="path66" /><path
         d="m 1751.32,399.148 c 7.05,0 12.6,-2.019 16.65,-6.066 4.05,-4.051 7.51,-9.211 10.38,-15.48 4.18,-9.661 6.92,-16.981 8.23,-21.942 1.31,-4.961 3.65,-7.441 7.05,-7.441 2.87,0 4.84,1.562 5.88,4.699 1.05,3.133 1.83,7.582 2.35,13.32 0.78,14.371 1.76,26.321 2.94,35.852 1.18,9.531 1.76,17.301 1.76,23.308 0,1.313 -0.52,3.133 -1.56,5.493 -1.05,2.339 -2.49,3.519 -4.32,3.519 -2.09,0 -3.65,-0.719 -4.69,-2.148 -1.05,-1.442 -1.97,-3.071 -2.75,-4.903 -0.78,-1.828 -1.57,-3.461 -2.35,-4.898 -0.78,-1.43 -1.96,-2.16 -3.53,-2.16 -1.04,-2.34 -4.57,-3.789 -10.57,-4.301 -6.01,-0.52 -13.98,-0.789 -23.9,-0.789 h -84.23 c -2.88,0 -5.3,-0.063 -7.25,-0.191 -1.96,-0.141 -3.72,-0.2 -5.29,-0.2 -2.35,0 -4.18,0.391 -5.49,1.18 -1.3,0.781 -2.35,2.602 -3.13,5.48 -0.52,0.258 -0.98,0.981 -1.37,2.149 -0.4,1.18 -0.85,2.422 -1.37,3.73 -0.53,1.301 -1.18,2.422 -1.96,3.332 -0.79,0.911 -1.83,1.368 -3.14,1.368 -3.13,0 -5.16,-2.481 -6.07,-7.438 -0.91,-4.961 -2.15,-10.711 -3.72,-17.25 -2.88,-15.66 -5.23,-27.48 -7.05,-35.449 -1.83,-7.973 -2.75,-13.121 -2.75,-15.481 0,-4.429 1.83,-6.66 5.49,-6.66 3.4,0 6.27,2.68 8.62,8.039 2.35,5.352 6.53,12.211 12.53,20.571 4.18,5.738 8.56,10.64 13.13,14.691 4.57,4.047 9.86,6.066 15.86,6.066 h 4.71 c 1.3,0 2.41,-1.109 3.33,-3.328 0.91,-2.218 1.37,-4.109 1.37,-5.679 V 200.91 c 0,-6.789 -0.98,-11.359 -2.94,-13.711 -1.96,-2.347 -5.55,-4.051 -10.77,-5.09 -4.18,-0.781 -7.12,-1.57 -8.82,-2.347 -1.7,-0.793 -2.55,-2.614 -2.55,-5.481 0,-5.75 2.48,-8.633 7.45,-8.633 1.83,0 6.27,0.524 13.32,1.571 7.05,1.043 17.24,1.57 30.56,1.57 13.32,0 23.5,-0.527 30.56,-1.57 7.04,-1.047 11.49,-1.571 13.32,-1.571 4.96,0 7.44,3 7.44,9.024 0,3.129 -0.98,4.957 -2.94,5.476 -1.96,0.524 -5.16,1.18 -9.6,1.961 -4.7,0.782 -8.03,2.61 -9.99,5.481 -1.96,2.879 -2.93,7.191 -2.93,12.93 v 190.011 c 0,1.309 0.45,3.071 1.36,5.289 0.92,2.219 2.03,3.328 3.34,3.328 h 9.4"
         style="fill:#249e43;fill-opacity:1;fill-rule:nonzero;stroke:none"
         id="path68" /><path
         d="m 1894.71,495.922 c -3.92,5.219 -7.38,9.066 -10.38,11.558 -3.01,2.481 -6.34,3.719 -9.99,3.719 -3.92,0 -7.19,-1.5 -9.8,-4.508 -2.61,-3 -3.91,-7.25 -3.91,-12.73 0,-4.973 1.17,-8.813 3.52,-11.563 2.35,-2.738 5.87,-5.679 10.58,-8.82 l 48.19,-31.719 h 13.71 z m -7.44,-157.102 20.76,-62.3 c 0.26,-1.04 0.39,-2.481 0.39,-4.301 0,-1.578 -1.31,-2.36 -3.92,-2.36 h -38.78 c -2.35,0 -3.53,0.661 -3.53,1.973 0,0.246 0.26,1.168 0.78,2.727 l 19.2,63.871 c 0.78,3.129 1.7,4.691 2.74,4.691 0.79,0 1.57,-1.43 2.36,-4.301 z m 33.69,66.211 c -2.09,6.789 -3.86,11.09 -5.29,12.93 -1.44,1.82 -4.51,2.73 -9.21,2.73 -4.18,0 -7.31,-0.839 -9.4,-2.543 -2.09,-1.699 -4.31,-5.937 -6.66,-12.73 l -65.04,-197.84 c -2.08,-6.008 -4.17,-10.84 -6.26,-14.496 -2.09,-3.66 -4.71,-6.273 -7.84,-7.844 -3.66,-1.816 -6.86,-3.199 -9.6,-4.109 -2.74,-0.918 -4.11,-3.59 -4.11,-8.027 0,-4.973 2.61,-7.454 7.84,-7.454 1.04,0 3.65,0.461 7.83,1.372 4.18,0.921 10.45,1.378 18.81,1.378 10.96,0 19.32,-0.457 25.07,-1.378 5.74,-0.911 9.14,-1.372 10.19,-1.372 5.48,0 8.22,2.614 8.22,7.84 0,4.184 -1.63,6.723 -4.89,7.641 -3.27,0.91 -7.51,2.41 -12.74,4.5 -5.74,2.359 -9.47,4.902 -11.16,7.641 -1.7,2.75 -2.55,6.601 -2.55,11.558 0,6.274 2.48,18.152 7.44,35.652 0.79,2.622 1.63,4.641 2.55,6.071 0.91,1.437 2.42,2.551 4.5,3.328 2.09,0.781 5.16,1.242 9.21,1.383 4.05,0.129 9.47,0.187 16.26,0.187 12.54,0 21.16,-0.328 25.86,-0.98 4.7,-0.66 7.71,-3.188 9.01,-7.641 l 13.32,-43.476 c 0.78,-2.883 1.17,-5.231 1.17,-7.063 0,-3.648 -1.11,-6 -3.33,-7.051 -2.22,-1.039 -4.56,-1.816 -7.04,-2.347 -2.49,-0.52 -4.84,-1.313 -7.06,-2.352 -2.22,-1.051 -3.33,-3.391 -3.33,-7.051 0,-5.226 3,-7.84 9.01,-7.84 4.96,0 11.23,0.59 18.81,1.762 7.57,1.18 16.33,1.77 26.25,1.77 10.96,0 19.78,-0.461 26.44,-1.371 6.66,-0.918 11.43,-1.368 14.3,-1.368 3.66,0 6.34,0.45 8.04,1.368 1.7,0.91 2.54,2.8 2.54,5.679 0,2.352 -0.52,4.121 -1.57,5.293 -1.04,1.168 -2.41,2.02 -4.11,2.547 -1.7,0.524 -3.52,0.973 -5.49,1.363 -1.96,0.399 -3.72,0.981 -5.29,1.758 -6.79,3.66 -12.92,14.11 -18.41,31.352 l -62.29,189.23 v 0"
         style="fill:#249e43;fill-opacity:1;fill-rule:nonzero;stroke:none"
         id="path70" /><path
         d="m 2131.74,200.91 c 0,-6.789 -0.99,-11.359 -2.94,-13.711 -1.96,-2.347 -5.56,-4.051 -10.77,-5.09 -4.18,-0.781 -7.12,-1.57 -8.82,-2.347 -1.7,-0.793 -2.55,-2.614 -2.55,-5.481 0,-5.75 2.48,-8.633 7.44,-8.633 3.14,0 7.84,0.59 14.11,1.762 6.27,1.18 14.23,1.77 23.9,1.77 6.27,0 13.71,-0.649 22.32,-1.961 8.63,-1.297 18.69,-1.957 30.17,-1.957 19.85,0 37.74,3.269 53.68,9.797 15.93,6.519 29.44,15.472 40.55,26.832 11.1,11.359 19.59,24.679 25.47,39.968 5.88,15.27 8.81,31.672 8.81,49.172 0,19.059 -3.07,36.489 -9.2,52.289 -6.15,15.801 -14.9,29.321 -26.25,40.551 -11.37,11.238 -25.35,19.918 -41.93,26.051 -16.59,6.137 -35.19,9.207 -55.83,9.207 -13.84,0 -26.57,-0.649 -38.19,-1.949 -11.62,-1.309 -21.68,-3.012 -30.17,-5.102 -8.48,-2.09 -15.15,-4.508 -19.99,-7.25 -4.82,-2.738 -7.23,-5.547 -7.23,-8.418 0,-4.18 1.3,-6.269 3.91,-6.269 2.35,0 4.57,0.187 6.66,0.578 2.08,0.402 3.92,0.601 5.48,0.601 7.58,0 11.37,-4.711 11.37,-14.109 z m 51.32,16.84 v 163.77 c 0,3.39 0.19,6.468 0.58,9.199 0.39,2.75 1.51,5.101 3.33,7.062 1.84,1.957 4.38,3.391 7.65,4.309 3.26,0.91 7.9,1.371 13.91,1.371 10.18,0 19.59,-2.539 28.2,-7.641 8.62,-5.101 16,-12.398 22.14,-21.941 6.14,-9.527 10.91,-21.16 14.3,-34.867 3.39,-13.711 5.09,-29.192 5.09,-46.422 0,-17.77 -1.96,-33.5 -5.88,-47.211 -3.91,-13.711 -9.14,-25.27 -15.66,-34.68 -6.53,-9.398 -14.11,-16.578 -22.74,-21.539 -8.61,-4.961 -17.62,-7.441 -27.03,-7.441 -9.92,0 -16.38,2.672 -19.39,8.031 -3,5.352 -4.5,14.691 -4.5,28 v 0"
         style="fill:#249e43;fill-opacity:1;fill-rule:nonzero;stroke:none"
         id="path72" /><path
         d="m 2429.48,378.781 c 0,6.789 1.12,11.418 3.33,13.91 2.22,2.481 6.2,4.11 11.96,4.887 3.91,0.531 6.59,1.184 8.02,1.961 1.44,0.781 2.16,2.621 2.16,5.492 0,5.739 -2.48,8.61 -7.44,8.61 -1.57,0 -5.95,-0.461 -13.13,-1.36 -7.18,-0.922 -17.44,-1.383 -30.76,-1.383 -13.32,0 -23.56,0.461 -30.75,1.383 -7.18,0.899 -11.55,1.36 -13.12,1.36 -4.96,0 -7.45,-2.743 -7.45,-8.223 0,-3.656 1.18,-5.809 3.53,-6.469 2.35,-0.648 5.62,-1.371 9.8,-2.148 4.43,-1.051 7.5,-2.942 9.2,-5.68 1.7,-2.742 2.54,-6.992 2.54,-12.73 V 200.91 c 0,-6.789 -0.97,-11.359 -2.93,-13.711 -1.96,-2.347 -5.55,-4.051 -10.78,-5.09 -4.17,-0.781 -7.12,-1.57 -8.81,-2.347 -1.7,-0.793 -2.55,-2.614 -2.55,-5.481 0,-5.75 2.49,-8.633 7.45,-8.633 1.82,0 6.27,0.524 13.32,1.571 7.05,1.043 17.23,1.57 30.55,1.57 13.32,0 23.51,-0.527 30.56,-1.57 7.05,-1.047 11.49,-1.571 13.33,-1.571 4.96,0 7.44,3 7.44,9.024 0,3.129 -0.99,4.957 -2.94,5.476 -1.96,0.524 -5.16,1.18 -9.6,1.961 -4.7,0.782 -8.03,2.61 -9.99,5.481 -1.96,2.879 -2.94,7.191 -2.94,12.93 v 178.261"
         style="fill:#249e43;fill-opacity:1;fill-rule:nonzero;stroke:none"
         id="path74" /><path
         d="m 2690.01,399.148 c 7.05,0 12.61,-2.019 16.66,-6.066 4.04,-4.051 7.51,-9.211 10.38,-15.48 4.17,-9.661 6.91,-16.981 8.22,-21.942 1.31,-4.961 3.66,-7.441 7.05,-7.441 2.88,0 4.84,1.562 5.88,4.699 1.05,3.133 1.83,7.582 2.36,13.32 0.78,14.371 1.75,26.321 2.93,35.852 1.18,9.531 1.76,17.301 1.76,23.308 0,1.313 -0.51,3.133 -1.57,5.493 -1.03,2.339 -2.47,3.519 -4.3,3.519 -2.09,0 -3.66,-0.719 -4.7,-2.148 -1.05,-1.442 -1.97,-3.071 -2.75,-4.903 -0.78,-1.828 -1.56,-3.461 -2.35,-4.898 -0.78,-1.43 -1.95,-2.16 -3.53,-2.16 -1.04,-2.34 -4.57,-3.789 -10.57,-4.301 -6.01,-0.52 -13.98,-0.789 -23.9,-0.789 h -84.24 c -2.87,0 -5.28,-0.063 -7.24,-0.191 -1.96,-0.141 -3.72,-0.2 -5.29,-0.2 -2.35,0 -4.18,0.391 -5.48,1.18 -1.31,0.781 -2.36,2.602 -3.14,5.48 -0.52,0.258 -0.98,0.981 -1.37,2.149 -0.4,1.18 -0.85,2.422 -1.37,3.73 -0.52,1.301 -1.17,2.422 -1.96,3.332 -0.79,0.911 -1.83,1.368 -3.13,1.368 -3.14,0 -5.17,-2.481 -6.07,-7.438 -0.92,-4.961 -2.16,-10.711 -3.73,-17.25 -2.88,-15.66 -5.22,-27.48 -7.05,-35.449 -1.83,-7.973 -2.74,-13.121 -2.74,-15.481 0,-4.429 1.83,-6.66 5.49,-6.66 3.39,0 6.26,2.68 8.61,8.039 2.35,5.352 6.53,12.211 12.54,20.571 4.18,5.738 8.55,10.64 13.13,14.691 4.57,4.047 9.85,6.066 15.85,6.066 h 4.71 c 1.31,0 2.41,-1.109 3.33,-3.328 0.91,-2.218 1.37,-4.109 1.37,-5.679 V 200.91 c 0,-6.789 -0.98,-11.359 -2.94,-13.711 -1.95,-2.347 -5.55,-4.051 -10.77,-5.09 -4.18,-0.781 -7.12,-1.57 -8.82,-2.347 -1.7,-0.793 -2.54,-2.614 -2.54,-5.481 0,-5.75 2.48,-8.633 7.44,-8.633 1.83,0 6.27,0.524 13.32,1.571 7.05,1.043 17.24,1.57 30.56,1.57 13.32,0 23.5,-0.527 30.56,-1.57 7.05,-1.047 11.49,-1.571 13.32,-1.571 4.96,0 7.45,3 7.45,9.024 0,3.129 -0.99,4.957 -2.94,5.476 -1.97,0.524 -5.17,1.18 -9.6,1.961 -4.7,0.782 -8.04,2.61 -9.99,5.481 -1.97,2.879 -2.94,7.191 -2.94,12.93 v 190.011 c 0,1.309 0.46,3.071 1.37,5.289 0.91,2.219 2.03,3.328 3.33,3.328 h 9.4"
         style="fill:#249e43;fill-opacity:1;fill-rule:nonzero;stroke:none"
         id="path76" /><path
         d="m 2868.27,405.418 c 8.61,0 16.78,-2.867 24.48,-8.617 7.71,-5.75 14.44,-13.981 20.18,-24.68 5.75,-10.711 10.32,-23.84 13.71,-39.383 3.4,-15.527 5.1,-33.097 5.1,-52.687 0,-16.969 -1.44,-31.992 -4.31,-45.051 -2.87,-13.07 -6.85,-24.031 -11.95,-32.91 -5.09,-8.891 -11.16,-15.61 -18.21,-20.18 -7.06,-4.57 -14.63,-6.851 -22.74,-6.851 -8.61,0 -16.78,2.8 -24.48,8.421 -7.71,5.61 -14.42,13.84 -20.18,24.68 -5.74,10.84 -10.25,24.031 -13.51,39.559 -3.26,15.551 -4.9,33.25 -4.9,53.09 0,16.722 1.44,31.613 4.31,44.671 2.87,13.051 6.86,24.02 11.94,32.911 5.1,8.879 11.11,15.597 18.03,20.168 6.93,4.57 14.44,6.859 22.53,6.859 z m 4.31,15.273 c -16.19,0 -31.34,-3.32 -45.45,-9.992 -14.1,-6.648 -26.38,-15.789 -36.83,-27.418 -10.44,-11.621 -18.67,-25.402 -24.67,-41.332 -6.01,-15.929 -9.02,-33.168 -9.02,-51.719 0,-18.539 3.01,-35.781 9.02,-51.699 6,-15.941 14.23,-29.781 24.67,-41.543 10.45,-11.75 22.53,-20.957 36.24,-27.617 13.71,-6.66 28.41,-9.992 44.08,-9.992 16.2,0 31.34,3.332 45.44,9.992 14.12,6.66 26.39,15.867 36.83,27.617 10.45,11.762 18.68,25.602 24.69,41.543 6,15.918 9.01,33.16 9.01,51.699 0,18.551 -3.01,35.79 -9.01,51.719 -6.01,15.93 -14.24,29.711 -24.69,41.332 -10.44,11.629 -22.52,20.77 -36.23,27.418 -13.72,6.672 -28.41,9.992 -44.08,9.992 v 0"
         style="fill:#249e43;fill-opacity:1;fill-rule:nonzero;stroke:none"
         id="path78" /><path
         d="m 3133.51,295.328 c 18.54,3.922 32.64,11.102 42.31,21.543 9.66,10.449 14.49,23.25 14.49,38.399 0,19.332 -5.81,34.152 -17.43,44.468 -11.62,10.321 -29.19,15.473 -52.69,15.473 -9.41,0 -20.44,-0.332 -33.11,-0.973 -12.67,-0.66 -26.96,-0.988 -42.9,-0.988 -5.22,0 -9.99,0.199 -14.3,0.59 -4.31,0.398 -8.03,0.59 -11.17,0.59 -8.61,0 -12.93,-3 -12.93,-9.012 0,-3.398 1.18,-5.418 3.54,-6.066 2.34,-0.661 5.74,-1.512 10.17,-2.551 4.45,-1.051 7.45,-2.942 9.02,-5.68 1.57,-2.742 2.35,-6.992 2.35,-12.73 V 200.91 c 0,-6.531 -0.92,-11.039 -2.74,-13.519 -1.83,-2.481 -5.36,-4.243 -10.58,-5.282 -4.44,-0.781 -7.44,-1.57 -9.01,-2.347 -1.57,-0.793 -2.35,-2.614 -2.35,-5.481 0,-5.75 2.47,-8.633 7.44,-8.633 1.83,0 6.27,0.524 13.32,1.571 7.05,1.043 16.98,1.57 29.78,1.57 13.06,0 23.17,-0.527 30.36,-1.57 7.18,-1.047 11.55,-1.571 13.13,-1.571 4.96,0 7.44,3 7.44,9.024 0,3.387 -1.05,5.277 -3.14,5.668 -2.09,0.39 -5.35,0.988 -9.79,1.769 -4.7,0.782 -7.9,2.61 -9.6,5.481 -1.7,2.879 -2.54,7.191 -2.54,12.93 v 79.14 c 0,3.66 1.43,5.488 4.3,5.488 h 2.75 c 7.83,0 15.15,-8.628 21.93,-25.859 l 31.74,-80.711 c 2.35,-6 4.31,-9.598 5.88,-10.769 1.56,-1.18 4.04,-1.77 7.44,-1.77 4.18,0 8.62,0.27 13.32,0.793 4.7,0.52 9.67,0.777 14.88,0.777 6.8,0 12.22,-0.39 16.26,-1.168 4.06,-0.793 7,-1.179 8.82,-1.179 1.83,0 3.33,0.726 4.5,2.148 1.19,1.449 1.77,3.199 1.77,5.289 0,2.09 -0.78,3.66 -2.35,4.711 -1.56,1.039 -3.53,2.289 -5.88,3.719 -2.34,1.441 -4.89,3.461 -7.64,6.07 -2.74,2.61 -5.15,6.403 -7.24,11.36 l -29.78,68.171 c -3.65,8.09 -7.64,14.301 -11.95,18.61 -4.31,4.308 -10.26,7.64 -17.82,9.988 z m -51.72,26.641 v 47.011 c 0,9.668 0.98,16.918 2.94,21.739 1.96,4.84 6.85,7.261 14.69,7.261 4.96,0 9.59,-1.242 13.91,-3.73 4.31,-2.48 8.1,-5.871 11.36,-10.18 3.26,-4.308 5.88,-9.398 7.83,-15.281 1.96,-5.879 2.94,-12.348 2.94,-19.398 0,-14.102 -3.98,-25.661 -11.94,-34.661 -7.97,-9.019 -18.62,-13.519 -31.94,-13.519 -4.7,0 -7.51,1.168 -8.42,3.527 -0.91,2.34 -1.37,6.91 -1.37,13.711 v 3.52 0"
         style="fill:#249e43;fill-opacity:1;fill-rule:nonzero;stroke:none"
         id="path80" /><path
         d="m 3292.96,378.781 c 0,6.789 1.1,11.418 3.33,13.91 2.22,2.481 6.2,4.11 11.94,4.887 3.92,0.531 6.6,1.184 8.04,1.961 1.44,0.781 2.15,2.621 2.15,5.492 0,5.739 -2.48,8.61 -7.44,8.61 -1.57,0 -5.94,-0.461 -13.13,-1.36 -7.18,-0.922 -17.43,-1.383 -30.75,-1.383 -13.32,0 -23.57,0.461 -30.75,1.383 -7.19,0.899 -11.56,1.36 -13.13,1.36 -4.96,0 -7.45,-2.743 -7.45,-8.223 0,-3.656 1.18,-5.809 3.54,-6.469 2.34,-0.648 5.61,-1.371 9.78,-2.148 4.45,-1.051 7.51,-2.942 9.21,-5.68 1.7,-2.742 2.55,-6.992 2.55,-12.73 V 200.91 c 0,-6.789 -0.98,-11.359 -2.94,-13.711 -1.95,-2.347 -5.55,-4.051 -10.77,-5.09 -4.18,-0.781 -7.12,-1.57 -8.82,-2.347 -1.7,-0.793 -2.55,-2.614 -2.55,-5.481 0,-5.75 2.49,-8.633 7.45,-8.633 1.83,0 6.27,0.524 13.32,1.571 7.05,1.043 17.24,1.57 30.56,1.57 13.32,0 23.51,-0.527 30.56,-1.57 7.05,-1.047 11.49,-1.571 13.32,-1.571 4.96,0 7.44,3 7.44,9.024 0,3.129 -0.98,4.957 -2.94,5.476 -1.95,0.524 -5.16,1.18 -9.59,1.961 -4.71,0.782 -8.04,2.61 -9.99,5.481 -1.96,2.879 -2.94,7.191 -2.94,12.93 v 178.261"
         style="fill:#249e43;fill-opacity:1;fill-rule:nonzero;stroke:none"
         id="path82" /><path
         d="m 3525.28,356.441 c 0,12.539 0.65,21.95 1.96,28.219 1.3,6.27 4.18,10.18 8.62,11.75 2.61,1.039 5.03,1.699 7.25,1.961 2.21,0.258 4.04,0.578 5.48,0.981 1.44,0.386 2.55,0.968 3.33,1.757 0.79,0.782 1.18,2.219 1.18,4.309 0,5.742 -2.88,8.621 -8.63,8.621 -3.13,0 -5.87,-0.328 -8.22,-0.98 -2.35,-0.661 -4.18,-0.981 -5.49,-0.981 -0.52,0 -1.82,-0.066 -3.91,-0.199 -2.09,-0.117 -5.36,-0.188 -9.8,-0.188 -4.18,0 -7.38,0.071 -9.6,0.188 -2.22,0.133 -3.59,0.199 -4.11,0.199 -1.83,0 -4.11,0.32 -6.86,0.981 -2.74,0.652 -5.94,0.98 -9.6,0.98 -6.52,0 -9.79,-2.879 -9.79,-8.621 0,-2.348 0.59,-3.977 1.77,-4.887 1.17,-0.922 2.73,-1.511 4.69,-1.769 1.97,-0.262 4.25,-0.532 6.86,-0.782 2.62,-0.269 5.35,-1.05 8.23,-2.359 4.44,-2.09 7.38,-6.133 8.81,-12.141 1.44,-6.011 2.16,-15.011 2.16,-27.039 V 273 c 0,-3.648 -1.05,-5.48 -3.14,-5.48 -1.04,0 -2.35,1.171 -3.91,3.519 l -86.59,134.379 c -2.09,3.133 -3.78,5.164 -5.09,6.07 -1.31,0.91 -3.53,1.371 -6.66,1.371 -1.57,0 -4.5,-0.129 -8.82,-0.39 -4.31,-0.258 -9.85,-0.391 -16.65,-0.391 -11.49,0 -20.11,0.262 -25.85,0.781 -5.75,0.532 -9.14,0.782 -10.19,0.782 -4.97,0 -7.45,-2.871 -7.45,-8.61 0,-2.351 0.53,-3.992 1.58,-4.902 1.04,-0.91 2.41,-1.5 4.11,-1.758 1.7,-0.262 3.52,-0.461 5.49,-0.59 1.95,-0.133 3.84,-0.59 5.67,-1.371 3.66,-1.832 5.95,-5.23 6.85,-10.191 0.92,-4.957 1.38,-11.75 1.38,-20.367 V 223.629 c 0,-12.527 -0.65,-21.93 -1.96,-28.199 -1.31,-6.27 -4.18,-10.192 -8.61,-11.758 -2.62,-1.043 -4.98,-1.703 -7.06,-1.953 -2.08,-0.27 -3.92,-0.528 -5.48,-0.778 -1.57,-0.269 -2.75,-0.851 -3.53,-1.773 -0.79,-0.918 -1.18,-2.418 -1.18,-4.496 0,-5.75 2.88,-8.633 8.62,-8.633 2.36,0 5.75,0.402 10.19,1.18 4.44,0.793 10.18,1.179 17.23,1.179 7.06,0 13.07,-0.386 18.03,-1.179 4.96,-0.778 8.88,-1.18 11.75,-1.18 6.8,0 10.19,2.883 10.19,8.633 0,2.34 -0.66,3.969 -1.96,4.887 -1.31,0.921 -3.01,1.441 -5.1,1.57 -2.09,0.133 -4.44,0.32 -7.05,0.59 -2.6,0.25 -5.22,1.043 -7.83,2.34 -4.44,2.089 -7.31,6.211 -8.62,12.351 -1.31,6.141 -1.96,15.211 -1.96,27.219 v 130.07 c 0,3.66 0.4,5.492 1.18,5.492 1.04,0 2.21,-0.781 3.52,-2.351 l 117.14,-185.309 c 2.88,-4.699 5.56,-8.551 8.04,-11.562 2.48,-3 5.55,-4.5 9.2,-4.5 6.79,0 10.19,6.269 10.19,18.812 v 182.16"
         style="fill:#249e43;fill-opacity:1;fill-rule:nonzero;stroke:none"
         id="path84" /><path
         d="m 3679.25,405.418 c 8.62,0 16.78,-2.867 24.48,-8.617 7.71,-5.75 14.43,-13.981 20.19,-24.68 5.74,-10.711 10.31,-23.84 13.71,-39.383 3.39,-15.527 5.08,-33.097 5.08,-52.687 0,-16.969 -1.43,-31.992 -4.3,-45.051 -2.87,-13.07 -6.86,-24.031 -11.95,-32.91 -5.09,-8.891 -11.17,-15.61 -18.22,-20.18 -7.05,-4.57 -14.63,-6.851 -22.72,-6.851 -8.63,0 -16.79,2.8 -24.49,8.421 -7.71,5.61 -14.43,13.84 -20.18,24.68 -5.74,10.84 -10.24,24.031 -13.52,39.559 -3.26,15.551 -4.89,33.25 -4.89,53.09 0,16.722 1.44,31.613 4.31,44.671 2.87,13.051 6.85,24.02 11.95,32.911 5.09,8.879 11.09,15.597 18.02,20.168 6.92,4.57 14.43,6.859 22.53,6.859 z m 4.3,15.273 c -16.19,0 -31.33,-3.32 -45.44,-9.992 -14.11,-6.648 -26.38,-15.789 -36.83,-27.418 -10.44,-11.621 -18.67,-25.402 -24.68,-41.332 -6,-15.929 -9.01,-33.168 -9.01,-51.719 0,-18.539 3.01,-35.781 9.01,-51.699 6.01,-15.941 14.24,-29.781 24.68,-41.543 10.45,-11.75 22.53,-20.957 36.24,-27.617 13.71,-6.66 28.41,-9.992 44.08,-9.992 16.19,0 31.34,3.332 45.44,9.992 14.11,6.66 26.39,15.867 36.83,27.617 10.45,11.762 18.68,25.602 24.68,41.543 6.01,15.918 9.02,33.16 9.02,51.699 0,18.551 -3.01,35.79 -9.02,51.719 -6,15.93 -14.23,29.711 -24.68,41.332 -10.44,11.629 -22.52,20.77 -36.23,27.418 -13.72,6.672 -28.41,9.992 -44.09,9.992 v 0"
         style="fill:#249e43;fill-opacity:1;fill-rule:nonzero;stroke:none"
         id="path86" /></g></g></svg>
