<svg xmlns="http://www.w3.org/2000/svg" viewBox="0 0 296.29 296.29"><defs><style>.a203a5e5-3b91-4ce7-8a8e-9dd2807bcdad{fill:#fff;}.bf458bca-a2e7-49ed-a91c-2caf7db02ba1{fill:#252450;}.b71a683b-3eb3-4f8c-b8e9-44f99da5f7aa{fill:#ce131d;}</style></defs><g id="abe1e95e-2899-4031-a3de-c6eb585d9da2" data-name="Layer 2"><g id="b29565c0-6e80-4413-bbbc-36c6fb408d21" data-name="Livello 2"><rect class="a203a5e5-3b91-4ce7-8a8e-9dd2807bcdad" width="296.29" height="296.29"/></g><g id="b0b45722-c563-4717-b983-cf3c8b6134fc" data-name="Livello 1"><path class="bf458bca-a2e7-49ed-a91c-2caf7db02ba1" d="M192.31,165.41h3.38l4.46,7.13,4.45-7.13h3.34v9.47h-2.15l.09-7.79-4.9,7.79h-1.72l-4.87-7.79.05,7.79h-2.13Z"/><path class="bf458bca-a2e7-49ed-a91c-2caf7db02ba1" d="M211.89,165.41H222v1.66h-7.92v2.25h7.53v1.49h-7.53v2.41h8v1.66H211.89Z"/><path class="bf458bca-a2e7-49ed-a91c-2caf7db02ba1" d="M225.6,165.41H229l4.46,7.13,4.45-7.13h3.33v9.47h-2.14l.08-7.79-4.9,7.79h-1.72l-4.87-7.79.06,7.79H225.6Z"/><path class="bf458bca-a2e7-49ed-a91c-2caf7db02ba1" d="M245.18,165.41h8.17c2.37,0,3.2.65,3.2,2.53,0,1.22-.37,1.8-1.27,2,1.15.16,1.62.8,1.62,2.22,0,2-.88,2.72-3.14,2.72h-8.58Zm7.32,3.89a3.18,3.18,0,0,0,1.45-.17,1,1,0,0,0,.41-.91,1,1,0,0,0-.46-1,2.38,2.38,0,0,0-1.19-.18h-5.38v2.24Zm.47,3.94c1.32,0,1.72-.29,1.72-1.24a1.16,1.16,0,0,0-.44-1,3.42,3.42,0,0,0-1.43-.18h-5.49v2.46Z"/><path class="bf458bca-a2e7-49ed-a91c-2caf7db02ba1" d="M260.58,165.41h10.07v1.66h-7.92v2.25h7.53v1.49h-7.53v2.41h8v1.66H260.58Z"/><path class="bf458bca-a2e7-49ed-a91c-2caf7db02ba1" d="M274.28,165.41h8c1.66,0,2.41.2,2.92.75a3.34,3.34,0,0,1,.61,2.27,3.15,3.15,0,0,1-.41,2,1.74,1.74,0,0,1-1.19.62c1.19.1,1.46.47,1.45,2v1.87h-2.21v-1.42c0-1.29-.32-1.54-1.76-1.53h-5.27v2.95h-2.17Zm7.37,4.77c1.59,0,2-.28,2-1.42,0-1.31-.33-1.58-1.95-1.58h-5.24v3Z"/><path class="bf458bca-a2e7-49ed-a91c-2caf7db02ba1" d="M23.39,121.38a3.56,3.56,0,0,1,.92-2.61,3.53,3.53,0,0,1,2.61-.91H50.85q5.31,0,8.13,3a11.07,11.07,0,0,1,2.81,7.83A10.89,10.89,0,0,1,59,136.5q-2.84,3-8.1,3H30.4v6.87a3.6,3.6,0,0,1-.89,2.61,3.46,3.46,0,0,1-2.59.91,3.19,3.19,0,0,1-3.53-3.52Zm26.68,2.71H30.4v9.2H50.07A4.52,4.52,0,0,0,53.55,132a4.69,4.69,0,0,0,1.19-3.3,4.76,4.76,0,0,0-1.19-3.32A4.46,4.46,0,0,0,50.07,124.09Z"/><path class="bf458bca-a2e7-49ed-a91c-2caf7db02ba1" d="M126.23,149.91q-7.78,0-12-4.49A16.2,16.2,0,0,1,110,133.88v-12.5a3.56,3.56,0,0,1,.92-2.61,3.53,3.53,0,0,1,6.13,2.61v12.5a9.91,9.91,0,0,0,2.57,7.08c1.71,1.82,4.16,2.72,7.37,2.72h16.22q3.17,0,3.16,3.12t-3.16,3.11Z"/><path class="b71a683b-3eb3-4f8c-b8e9-44f99da5f7aa" d="M192.21,121.38a3.56,3.56,0,0,1,.92-2.61,3.53,3.53,0,0,1,2.61-.91,3.43,3.43,0,0,1,2.58.91,3.6,3.6,0,0,1,.9,2.61v25a3.57,3.57,0,0,1-.9,2.61,3.43,3.43,0,0,1-2.58.91,3.19,3.19,0,0,1-3.53-3.52Z"/><path class="b71a683b-3eb3-4f8c-b8e9-44f99da5f7aa" d="M220.78,124.09q-4.82,0-7.38,2.74a11,11,0,0,0,0,14.11q2.57,2.75,7.38,2.74h14.69q3.17,0,3.16,3.12t-3.16,3.11H220q-7.83,0-12-4.49a18,18,0,0,1,0-23.07q4.19-4.48,12-4.49h15.47q3.17,0,3.16,3.11t-3.16,3.12Z"/><path class="b71a683b-3eb3-4f8c-b8e9-44f99da5f7aa" d="M282.65,124.09H267.73v22.3a3.57,3.57,0,0,1-.9,2.61,3.44,3.44,0,0,1-2.58.91,3.19,3.19,0,0,1-3.53-3.52v-22.3H245.79c-2.1,0-3.16-1-3.16-3.12s1.06-3.11,3.16-3.11h36.86q3.17,0,3.16,3.11T282.65,124.09Z"/><path class="bf458bca-a2e7-49ed-a91c-2caf7db02ba1" d="M101.27,122.35q-4.2-4.48-12-4.49H81.89q-7.83,0-12,4.49a18,18,0,0,0,0,23.07q4.18,4.5,12,4.49h7.36q7.83,0,12-4.49a18,18,0,0,0,0-23.07Zm-5.43,18.59q-2.57,2.75-7.37,2.74H82.66q-4.8,0-7.37-2.74a11,11,0,0,1,0-14.11q2.56-2.74,7.37-2.74h5.81q4.8,0,7.37,2.74a11,11,0,0,1,0,14.11Z"/><path class="bf458bca-a2e7-49ed-a91c-2caf7db02ba1" d="M183.74,122.35q-4.2-4.48-12-4.49h-7.36q-7.83,0-12,4.49a18,18,0,0,0,0,23.07q4.18,4.5,12,4.49h7.36q7.83,0,12-4.49a18,18,0,0,0,0-23.07Zm-5.43,18.59q-2.56,2.75-7.37,2.74h-5.81q-4.8,0-7.37-2.74a11,11,0,0,1,0-14.11q2.56-2.74,7.37-2.74h5.81q4.8,0,7.37,2.74a11,11,0,0,1,0,14.11Z"/><path class="b71a683b-3eb3-4f8c-b8e9-44f99da5f7aa" d="M26.92,174.88a3.19,3.19,0,0,1-3.53-3.52,3.47,3.47,0,0,1,.92-2.59,3.6,3.6,0,0,1,2.61-.89H176.4a3.6,3.6,0,0,1,2.61.89,3.47,3.47,0,0,1,.92,2.59,3.19,3.19,0,0,1-3.53,3.52Z"/></g></g></svg>