<?xml version="1.0" encoding="UTF-8" standalone="no"?>
<!DOCTYPE svg PUBLIC "-//W3C//DTD SVG 1.1//EN" "http://www.w3.org/Graphics/SVG/1.1/DTD/svg11.dtd">
<svg width="100%" height="100%" viewBox="0 0 144 394" version="1.1" xmlns="http://www.w3.org/2000/svg" xmlns:xlink="http://www.w3.org/1999/xlink" xml:space="preserve" xmlns:serif="http://www.serif.com/" style="fill-rule:evenodd;clip-rule:evenodd;stroke-linejoin:round;stroke-miterlimit:2;">
    <g transform="matrix(1,0,0,1,-641.351,-1103.76)">
        <g transform="matrix(0.428571,0,0,0.428571,140.252,959.723)">
            <g transform="matrix(0.676363,-0.390498,4.72691e-17,0.882126,433.551,755.808)">
                <rect x="1334.66" y="936.575" width="246.958" height="218.646" style="fill:rgb(189,101,101);"/>
            </g>
            <g transform="matrix(0.866025,0.5,-5.55112e-17,1.1547,0,0)">
                <rect x="1350.11" y="250.55" width="192.873" height="167.033" style="fill:rgb(146,54,37);"/>
            </g>
            <g transform="matrix(0.866025,-0.5,1,0.57735,0,0)">
                <rect x="-289.31" y="1419.78" width="192.873" height="167.033" style="fill:rgb(220,123,123);"/>
            </g>
        </g>
        <g transform="matrix(0.428571,0,0,0.428571,140.252,842.828)">
            <g transform="matrix(0.676363,-0.390498,4.72691e-17,0.882126,433.551,755.808)">
                <rect x="1334.66" y="936.575" width="246.958" height="218.646" style="fill:rgb(255,212,100);"/>
            </g>
            <g transform="matrix(0.866025,0.5,-5.55112e-17,1.1547,0,0)">
                <rect x="1350.11" y="250.55" width="192.873" height="167.033" style="fill:rgb(255,166,1);"/>
            </g>
            <g transform="matrix(0.866025,-0.5,1,0.57735,0,0)">
                <rect x="-289.31" y="1419.78" width="192.873" height="167.033" style="fill:rgb(255,226,151);"/>
            </g>
        </g>
        <g transform="matrix(0.428571,0,0,0.428571,569.765,731.788)">
            <g transform="matrix(0.676363,-0.390498,4.72691e-17,0.882126,-568.648,755.808)">
                <rect x="1334.66" y="936.575" width="246.958" height="218.646" style="fill:rgb(60,66,80);"/>
            </g>
            <g transform="matrix(0.866025,0.5,-5.55112e-17,1.1547,-1002.2,0)">
                <rect x="1350.11" y="250.55" width="192.873" height="167.033" style="fill:rgb(14,17,25);"/>
            </g>
            <g transform="matrix(0.866025,-0.5,1,0.57735,-1002.2,0)">
                <rect x="-289.31" y="1419.78" width="192.873" height="167.033" style="fill:rgb(107,112,125);"/>
            </g>
        </g>
    </g>
</svg>
