<?xml version="1.0" encoding="UTF-8" standalone="no"?>
<!DOCTYPE svg PUBLIC "-//W3C//DTD SVG 1.1//EN" "http://www.w3.org/Graphics/SVG/1.1/DTD/svg11.dtd">
<svg width="100%" height="100%" viewBox="0 0 980 547" version="1.1" xmlns="http://www.w3.org/2000/svg" xmlns:xlink="http://www.w3.org/1999/xlink" xml:space="preserve" xmlns:serif="http://www.serif.com/" style="fill-rule:evenodd;clip-rule:evenodd;stroke-linejoin:round;stroke-miterlimit:2;">
    <g transform="matrix(1,0,0,1,-1647.85,-155.572)">
        <g id="_3x3x3-yellow" serif:id="3x3x3 yellow" transform="matrix(1,0,0,1,733.971,-736.377)">
            <g id="Floor" transform="matrix(1,0,0,1,-1613.15,-756.131)">
                <g id="_0-" serif:id="0%" transform="matrix(0.832094,0,0,0.833953,1233.93,284.48)">
                    <g transform="matrix(0.866025,0.5,-5.55112e-17,1.1547,1277.23,709.14)">
                        <rect x="1253.68" y="501.099" width="96.437" height="83.517" style="fill:rgb(14,17,25);"/>
                    </g>
                    <g transform="matrix(0.866025,-0.5,5.55112e-17,1.1547,1277.23,709.14)">
                        <rect x="1350.11" y="1670.33" width="96.437" height="83.517" style="fill:rgb(60,66,80);"/>
                    </g>
                    <g transform="matrix(0.866025,-0.5,1,0.57735,1277.23,709.14)">
                        <rect x="-578.62" y="1586.81" width="96.437" height="83.517" style="fill:rgb(107,112,125);"/>
                    </g>
                </g>
                <g id="_0-1" serif:id="0%" transform="matrix(0.832094,0,0,0.833953,1317.44,332.698)">
                    <g transform="matrix(0.866025,0.5,-5.55112e-17,1.1547,1277.23,709.14)">
                        <rect x="1253.68" y="501.099" width="96.437" height="83.517" style="fill:rgb(14,17,25);"/>
                    </g>
                    <g transform="matrix(0.866025,-0.5,5.55112e-17,1.1547,1277.23,709.14)">
                        <rect x="1350.11" y="1670.33" width="96.437" height="83.517" style="fill:rgb(60,66,80);"/>
                    </g>
                    <g transform="matrix(0.866025,-0.5,1,0.57735,1277.23,709.14)">
                        <rect x="-578.62" y="1586.81" width="96.437" height="83.517" style="fill:rgb(107,112,125);"/>
                    </g>
                </g>
                <g id="_0-2" serif:id="0%" transform="matrix(0.832094,0,0,0.833953,1400.96,380.917)">
                    <g transform="matrix(0.866025,0.5,-5.55112e-17,1.1547,1277.23,709.14)">
                        <rect x="1253.68" y="501.099" width="96.437" height="83.517" style="fill:rgb(14,17,25);"/>
                    </g>
                    <g transform="matrix(0.866025,-0.5,5.55112e-17,1.1547,1277.23,709.14)">
                        <rect x="1350.11" y="1670.33" width="96.437" height="83.517" style="fill:rgb(60,66,80);"/>
                    </g>
                    <g transform="matrix(0.866025,-0.5,1,0.57735,1277.23,709.14)">
                        <rect x="-578.62" y="1586.81" width="96.437" height="83.517" style="fill:rgb(107,112,125);"/>
                    </g>
                </g>
                <g id="_0-3" serif:id="0%" transform="matrix(0.832094,0,0,0.833953,1150.41,332.698)">
                    <g transform="matrix(0.866025,0.5,-5.55112e-17,1.1547,1277.23,709.14)">
                        <rect x="1253.68" y="501.099" width="96.437" height="83.517" style="fill:rgb(14,17,25);"/>
                    </g>
                    <g transform="matrix(0.866025,-0.5,5.55112e-17,1.1547,1277.23,709.14)">
                        <rect x="1350.11" y="1670.33" width="96.437" height="83.517" style="fill:rgb(60,66,80);"/>
                    </g>
                    <g transform="matrix(0.866025,-0.5,1,0.57735,1277.23,709.14)">
                        <rect x="-578.62" y="1586.81" width="96.437" height="83.517" style="fill:rgb(107,112,125);"/>
                    </g>
                </g>
                <g id="_0-4" serif:id="0%" transform="matrix(0.832094,0,0,0.833953,1233.93,380.917)">
                    <g transform="matrix(0.866025,0.5,-5.55112e-17,1.1547,1277.23,709.14)">
                        <rect x="1253.68" y="501.099" width="96.437" height="83.517" style="fill:rgb(14,17,25);"/>
                    </g>
                    <g transform="matrix(0.866025,-0.5,5.55112e-17,1.1547,1277.23,709.14)">
                        <rect x="1350.11" y="1670.33" width="96.437" height="83.517" style="fill:rgb(60,66,80);"/>
                    </g>
                    <g transform="matrix(0.866025,-0.5,1,0.57735,1277.23,709.14)">
                        <rect x="-578.62" y="1586.81" width="96.437" height="83.517" style="fill:rgb(107,112,125);"/>
                    </g>
                </g>
                <g id="_0-5" serif:id="0%" transform="matrix(0.832094,0,0,0.833953,1317.44,429.135)">
                    <g transform="matrix(0.866025,0.5,-5.55112e-17,1.1547,1277.23,709.14)">
                        <rect x="1253.68" y="501.099" width="96.437" height="83.517" style="fill:rgb(14,17,25);"/>
                    </g>
                    <g transform="matrix(0.866025,-0.5,5.55112e-17,1.1547,1277.23,709.14)">
                        <rect x="1350.11" y="1670.33" width="96.437" height="83.517" style="fill:rgb(60,66,80);"/>
                    </g>
                    <g transform="matrix(0.866025,-0.5,1,0.57735,1277.23,709.14)">
                        <rect x="-578.62" y="1586.81" width="96.437" height="83.517" style="fill:rgb(107,112,125);"/>
                    </g>
                </g>
                <g id="_0-6" serif:id="0%" transform="matrix(0.832094,0,0,0.833953,1066.9,380.917)">
                    <g transform="matrix(0.866025,0.5,-5.55112e-17,1.1547,1277.23,709.14)">
                        <rect x="1253.68" y="501.099" width="96.437" height="83.517" style="fill:rgb(14,17,25);"/>
                    </g>
                    <g transform="matrix(0.866025,-0.5,5.55112e-17,1.1547,1277.23,709.14)">
                        <rect x="1350.11" y="1670.33" width="96.437" height="83.517" style="fill:rgb(60,66,80);"/>
                    </g>
                    <g transform="matrix(0.866025,-0.5,1,0.57735,1277.23,709.14)">
                        <rect x="-578.62" y="1586.81" width="96.437" height="83.517" style="fill:rgb(107,112,125);"/>
                    </g>
                </g>
                <g id="_0-7" serif:id="0%" transform="matrix(0.832094,0,0,0.833953,1150.41,429.135)">
                    <g transform="matrix(0.866025,0.5,-5.55112e-17,1.1547,1277.23,709.14)">
                        <rect x="1253.68" y="501.099" width="96.437" height="83.517" style="fill:rgb(14,17,25);"/>
                    </g>
                    <g transform="matrix(0.866025,-0.5,5.55112e-17,1.1547,1277.23,709.14)">
                        <rect x="1350.11" y="1670.33" width="96.437" height="83.517" style="fill:rgb(60,66,80);"/>
                    </g>
                    <g transform="matrix(0.866025,-0.5,1,0.57735,1277.23,709.14)">
                        <rect x="-578.62" y="1586.81" width="96.437" height="83.517" style="fill:rgb(107,112,125);"/>
                    </g>
                </g>
                <g id="_0-8" serif:id="0%" transform="matrix(0.832094,0,0,0.833953,1233.93,477.353)">
                    <g transform="matrix(0.866025,0.5,-5.55112e-17,1.1547,1277.23,709.14)">
                        <rect x="1253.68" y="501.099" width="96.437" height="83.517" style="fill:rgb(14,17,25);"/>
                    </g>
                    <g transform="matrix(0.866025,-0.5,5.55112e-17,1.1547,1277.23,709.14)">
                        <rect x="1350.11" y="1670.33" width="96.437" height="83.517" style="fill:rgb(60,66,80);"/>
                    </g>
                    <g transform="matrix(0.866025,-0.5,1,0.57735,1277.23,709.14)">
                        <rect x="-578.62" y="1586.81" width="96.437" height="83.517" style="fill:rgb(107,112,125);"/>
                    </g>
                </g>
            </g>
            <g id="Floor1" serif:id="Floor" transform="matrix(1,0,0,1,-1613.15,-852.568)">
                <g id="_0-9" serif:id="0%" transform="matrix(0.832094,0,0,0.833953,1233.93,284.48)">
                    <g transform="matrix(0.866025,0.5,-5.55112e-17,1.1547,1277.23,709.14)">
                        <rect x="1253.68" y="501.099" width="96.437" height="83.517" style="fill:rgb(14,17,25);"/>
                    </g>
                    <g transform="matrix(0.866025,-0.5,5.55112e-17,1.1547,1277.23,709.14)">
                        <rect x="1350.11" y="1670.33" width="96.437" height="83.517" style="fill:rgb(60,66,80);"/>
                    </g>
                    <g transform="matrix(0.866025,-0.5,1,0.57735,1277.23,709.14)">
                        <rect x="-578.62" y="1586.81" width="96.437" height="83.517" style="fill:rgb(107,112,125);"/>
                    </g>
                </g>
                <g id="_0-10" serif:id="0%" transform="matrix(0.832094,0,0,0.833953,1317.44,332.698)">
                    <g transform="matrix(0.866025,0.5,-5.55112e-17,1.1547,1277.23,709.14)">
                        <rect x="1253.68" y="501.099" width="96.437" height="83.517" style="fill:rgb(14,17,25);"/>
                    </g>
                    <g transform="matrix(0.866025,-0.5,5.55112e-17,1.1547,1277.23,709.14)">
                        <rect x="1350.11" y="1670.33" width="96.437" height="83.517" style="fill:rgb(60,66,80);"/>
                    </g>
                    <g transform="matrix(0.866025,-0.5,1,0.57735,1277.23,709.14)">
                        <rect x="-578.62" y="1586.81" width="96.437" height="83.517" style="fill:rgb(107,112,125);"/>
                    </g>
                </g>
                <g id="_0-11" serif:id="0%" transform="matrix(0.832094,0,0,0.833953,1400.96,380.917)">
                    <g transform="matrix(0.866025,0.5,-5.55112e-17,1.1547,1277.23,709.14)">
                        <rect x="1253.68" y="501.099" width="96.437" height="83.517" style="fill:rgb(14,17,25);"/>
                    </g>
                    <g transform="matrix(0.866025,-0.5,5.55112e-17,1.1547,1277.23,709.14)">
                        <rect x="1350.11" y="1670.33" width="96.437" height="83.517" style="fill:rgb(60,66,80);"/>
                    </g>
                    <g transform="matrix(0.866025,-0.5,1,0.57735,1277.23,709.14)">
                        <rect x="-578.62" y="1586.81" width="96.437" height="83.517" style="fill:rgb(107,112,125);"/>
                    </g>
                </g>
                <g id="_0-12" serif:id="0%" transform="matrix(0.832094,0,0,0.833953,1150.41,332.698)">
                    <g transform="matrix(0.866025,0.5,-5.55112e-17,1.1547,1277.23,709.14)">
                        <rect x="1253.68" y="501.099" width="96.437" height="83.517" style="fill:rgb(14,17,25);"/>
                    </g>
                    <g transform="matrix(0.866025,-0.5,5.55112e-17,1.1547,1277.23,709.14)">
                        <rect x="1350.11" y="1670.33" width="96.437" height="83.517" style="fill:rgb(60,66,80);"/>
                    </g>
                    <g transform="matrix(0.866025,-0.5,1,0.57735,1277.23,709.14)">
                        <rect x="-578.62" y="1586.81" width="96.437" height="83.517" style="fill:rgb(107,112,125);"/>
                    </g>
                </g>
                <g id="_0-13" serif:id="0%" transform="matrix(0.832094,0,0,0.833953,1233.93,380.917)">
                    <g transform="matrix(0.866025,0.5,-5.55112e-17,1.1547,1277.23,709.14)">
                        <rect x="1253.68" y="501.099" width="96.437" height="83.517" style="fill:rgb(14,17,25);"/>
                    </g>
                    <g transform="matrix(0.866025,-0.5,5.55112e-17,1.1547,1277.23,709.14)">
                        <rect x="1350.11" y="1670.33" width="96.437" height="83.517" style="fill:rgb(60,66,80);"/>
                    </g>
                    <g transform="matrix(0.866025,-0.5,1,0.57735,1277.23,709.14)">
                        <rect x="-578.62" y="1586.81" width="96.437" height="83.517" style="fill:rgb(107,112,125);"/>
                    </g>
                </g>
                <g id="_0-14" serif:id="0%" transform="matrix(0.832094,0,0,0.833953,1317.44,429.135)">
                    <g transform="matrix(0.866025,0.5,-5.55112e-17,1.1547,1277.23,709.14)">
                        <rect x="1253.68" y="501.099" width="96.437" height="83.517" style="fill:rgb(14,17,25);"/>
                    </g>
                    <g transform="matrix(0.866025,-0.5,5.55112e-17,1.1547,1277.23,709.14)">
                        <rect x="1350.11" y="1670.33" width="96.437" height="83.517" style="fill:rgb(60,66,80);"/>
                    </g>
                    <g transform="matrix(0.866025,-0.5,1,0.57735,1277.23,709.14)">
                        <rect x="-578.62" y="1586.81" width="96.437" height="83.517" style="fill:rgb(107,112,125);"/>
                    </g>
                </g>
                <g id="_0-15" serif:id="0%" transform="matrix(0.832094,0,0,0.833953,1066.9,380.917)">
                    <g transform="matrix(0.866025,0.5,-5.55112e-17,1.1547,1277.23,709.14)">
                        <rect x="1253.68" y="501.099" width="96.437" height="83.517" style="fill:rgb(14,17,25);"/>
                    </g>
                    <g transform="matrix(0.866025,-0.5,5.55112e-17,1.1547,1277.23,709.14)">
                        <rect x="1350.11" y="1670.33" width="96.437" height="83.517" style="fill:rgb(60,66,80);"/>
                    </g>
                    <g transform="matrix(0.866025,-0.5,1,0.57735,1277.23,709.14)">
                        <rect x="-578.62" y="1586.81" width="96.437" height="83.517" style="fill:rgb(107,112,125);"/>
                    </g>
                </g>
                <g id="_0-16" serif:id="0%" transform="matrix(0.832094,0,0,0.833953,1150.41,429.135)">
                    <g transform="matrix(0.866025,0.5,-5.55112e-17,1.1547,1277.23,709.14)">
                        <rect x="1253.68" y="501.099" width="96.437" height="83.517" style="fill:rgb(14,17,25);"/>
                    </g>
                    <g transform="matrix(0.866025,-0.5,5.55112e-17,1.1547,1277.23,709.14)">
                        <rect x="1350.11" y="1670.33" width="96.437" height="83.517" style="fill:rgb(60,66,80);"/>
                    </g>
                    <g transform="matrix(0.866025,-0.5,1,0.57735,1277.23,709.14)">
                        <rect x="-578.62" y="1586.81" width="96.437" height="83.517" style="fill:rgb(107,112,125);"/>
                    </g>
                </g>
                <g id="_0-17" serif:id="0%" transform="matrix(0.832094,0,0,0.833953,1233.93,477.353)">
                    <g transform="matrix(0.866025,0.5,-5.55112e-17,1.1547,1277.23,709.14)">
                        <rect x="1253.68" y="501.099" width="96.437" height="83.517" style="fill:rgb(14,17,25);"/>
                    </g>
                    <g transform="matrix(0.866025,-0.5,5.55112e-17,1.1547,1277.23,709.14)">
                        <rect x="1350.11" y="1670.33" width="96.437" height="83.517" style="fill:rgb(60,66,80);"/>
                    </g>
                    <g transform="matrix(0.866025,-0.5,1,0.57735,1277.23,709.14)">
                        <rect x="-578.62" y="1586.81" width="96.437" height="83.517" style="fill:rgb(107,112,125);"/>
                    </g>
                </g>
            </g>
            <g id="Floor2" serif:id="Floor" transform="matrix(1,0,0,1,-1613.15,-949.004)">
                <g id="_0-18" serif:id="0%" transform="matrix(0.832094,0,0,0.833953,1233.93,284.48)">
                    <g transform="matrix(0.866025,0.5,-5.55112e-17,1.1547,1277.23,709.14)">
                        <rect x="1253.68" y="501.099" width="96.437" height="83.517" style="fill:rgb(14,17,25);"/>
                    </g>
                    <g transform="matrix(0.866025,-0.5,5.55112e-17,1.1547,1277.23,709.14)">
                        <rect x="1350.11" y="1670.33" width="96.437" height="83.517" style="fill:rgb(60,66,80);"/>
                    </g>
                    <g transform="matrix(0.866025,-0.5,1,0.57735,1277.23,709.14)">
                        <rect x="-578.62" y="1586.81" width="96.437" height="83.517" style="fill:rgb(107,112,125);"/>
                    </g>
                </g>
                <g id="_0-19" serif:id="0%" transform="matrix(0.832094,0,0,0.833953,1317.44,332.698)">
                    <g transform="matrix(0.866025,0.5,-5.55112e-17,1.1547,1277.23,709.14)">
                        <rect x="1253.68" y="501.099" width="96.437" height="83.517" style="fill:rgb(14,17,25);"/>
                    </g>
                    <g transform="matrix(0.866025,-0.5,5.55112e-17,1.1547,1277.23,709.14)">
                        <rect x="1350.11" y="1670.33" width="96.437" height="83.517" style="fill:rgb(60,66,80);"/>
                    </g>
                    <g transform="matrix(0.866025,-0.5,1,0.57735,1277.23,709.14)">
                        <rect x="-578.62" y="1586.81" width="96.437" height="83.517" style="fill:rgb(107,112,125);"/>
                    </g>
                </g>
                <g id="_0-20" serif:id="0%" transform="matrix(0.832094,0,0,0.833953,1400.96,380.917)">
                    <g transform="matrix(0.866025,0.5,-5.55112e-17,1.1547,1277.23,709.14)">
                        <rect x="1253.68" y="501.099" width="96.437" height="83.517" style="fill:rgb(14,17,25);"/>
                    </g>
                    <g transform="matrix(0.866025,-0.5,5.55112e-17,1.1547,1277.23,709.14)">
                        <rect x="1350.11" y="1670.33" width="96.437" height="83.517" style="fill:rgb(60,66,80);"/>
                    </g>
                    <g transform="matrix(0.866025,-0.5,1,0.57735,1277.23,709.14)">
                        <rect x="-578.62" y="1586.81" width="96.437" height="83.517" style="fill:rgb(107,112,125);"/>
                    </g>
                </g>
                <g id="_0-21" serif:id="0%" transform="matrix(0.832094,0,0,0.833953,1150.41,332.698)">
                    <g transform="matrix(0.866025,0.5,-5.55112e-17,1.1547,1277.23,709.14)">
                        <rect x="1253.68" y="501.099" width="96.437" height="83.517" style="fill:rgb(14,17,25);"/>
                    </g>
                    <g transform="matrix(0.866025,-0.5,5.55112e-17,1.1547,1277.23,709.14)">
                        <rect x="1350.11" y="1670.33" width="96.437" height="83.517" style="fill:rgb(60,66,80);"/>
                    </g>
                    <g transform="matrix(0.866025,-0.5,1,0.57735,1277.23,709.14)">
                        <rect x="-578.62" y="1586.81" width="96.437" height="83.517" style="fill:rgb(107,112,125);"/>
                    </g>
                </g>
                <g id="_0-22" serif:id="0%" transform="matrix(0.832094,0,0,0.833953,1233.93,380.917)">
                    <g transform="matrix(0.866025,0.5,-5.55112e-17,1.1547,1277.23,709.14)">
                        <rect x="1253.68" y="501.099" width="96.437" height="83.517" style="fill:rgb(14,17,25);"/>
                    </g>
                    <g transform="matrix(0.866025,-0.5,5.55112e-17,1.1547,1277.23,709.14)">
                        <rect x="1350.11" y="1670.33" width="96.437" height="83.517" style="fill:rgb(60,66,80);"/>
                    </g>
                    <g transform="matrix(0.866025,-0.5,1,0.57735,1277.23,709.14)">
                        <rect x="-578.62" y="1586.81" width="96.437" height="83.517" style="fill:rgb(107,112,125);"/>
                    </g>
                </g>
                <g id="_0-23" serif:id="0%" transform="matrix(0.832094,0,0,0.833953,1317.44,429.135)">
                    <g transform="matrix(0.866025,0.5,-5.55112e-17,1.1547,1277.23,709.14)">
                        <rect x="1253.68" y="501.099" width="96.437" height="83.517" style="fill:rgb(14,17,25);"/>
                    </g>
                    <g transform="matrix(0.866025,-0.5,5.55112e-17,1.1547,1277.23,709.14)">
                        <rect x="1350.11" y="1670.33" width="96.437" height="83.517" style="fill:rgb(60,66,80);"/>
                    </g>
                    <g transform="matrix(0.866025,-0.5,1,0.57735,1277.23,709.14)">
                        <rect x="-578.62" y="1586.81" width="96.437" height="83.517" style="fill:rgb(107,112,125);"/>
                    </g>
                </g>
                <g id="_0-24" serif:id="0%" transform="matrix(0.832094,0,0,0.833953,1066.9,380.917)">
                    <g transform="matrix(0.866025,0.5,-5.55112e-17,1.1547,1277.23,709.14)">
                        <rect x="1253.68" y="501.099" width="96.437" height="83.517" style="fill:rgb(14,17,25);"/>
                    </g>
                    <g transform="matrix(0.866025,-0.5,5.55112e-17,1.1547,1277.23,709.14)">
                        <rect x="1350.11" y="1670.33" width="96.437" height="83.517" style="fill:rgb(60,66,80);"/>
                    </g>
                    <g transform="matrix(0.866025,-0.5,1,0.57735,1277.23,709.14)">
                        <rect x="-578.62" y="1586.81" width="96.437" height="83.517" style="fill:rgb(107,112,125);"/>
                    </g>
                </g>
                <g id="_0-25" serif:id="0%" transform="matrix(0.832094,0,0,0.833953,1150.41,429.135)">
                    <g transform="matrix(0.866025,0.5,-5.55112e-17,1.1547,1277.23,709.14)">
                        <rect x="1253.68" y="501.099" width="96.437" height="83.517" style="fill:rgb(14,17,25);"/>
                    </g>
                    <g transform="matrix(0.866025,-0.5,5.55112e-17,1.1547,1277.23,709.14)">
                        <rect x="1350.11" y="1670.33" width="96.437" height="83.517" style="fill:rgb(60,66,80);"/>
                    </g>
                    <g transform="matrix(0.866025,-0.5,1,0.57735,1277.23,709.14)">
                        <rect x="-578.62" y="1586.81" width="96.437" height="83.517" style="fill:rgb(107,112,125);"/>
                    </g>
                </g>
                <g id="_0-26" serif:id="0%" transform="matrix(0.832094,0,0,0.833953,1233.93,477.353)">
                    <g transform="matrix(0.866025,0.5,-5.55112e-17,1.1547,1277.23,709.14)">
                        <rect x="1253.68" y="501.099" width="96.437" height="83.517" style="fill:rgb(255,166,1);"/>
                    </g>
                    <g transform="matrix(0.866025,-0.5,5.55112e-17,1.15277,1277.23,712.365)">
                        <rect x="1350.11" y="1670.33" width="96.437" height="83.517" style="fill:rgb(255,212,100);"/>
                    </g>
                    <g transform="matrix(0.866025,-0.5,1,0.57735,1277.23,709.14)">
                        <rect x="-578.62" y="1586.81" width="96.437" height="83.517" style="fill:rgb(255,226,151);"/>
                    </g>
                </g>
            </g>
        </g>
        <g id="_2x2x2-yellow" serif:id="2x2x2 yellow" transform="matrix(1,0,0,1,314.597,-639.941)">
            <g id="Floor3" serif:id="Floor" transform="matrix(1,0,0,1,-1613.15,-852.568)">
                <g id="_0-27" serif:id="0%" transform="matrix(0.832094,0,0,0.833953,1233.93,380.917)">
                    <g transform="matrix(0.866025,0.5,-5.55112e-17,1.1547,1277.23,709.14)">
                        <rect x="1253.68" y="501.099" width="96.437" height="83.517" style="fill:rgb(14,17,25);"/>
                    </g>
                    <g transform="matrix(0.866025,-0.5,5.55112e-17,1.1547,1277.23,709.14)">
                        <rect x="1350.11" y="1670.33" width="96.437" height="83.517" style="fill:rgb(60,66,80);"/>
                    </g>
                    <g transform="matrix(0.866025,-0.5,1,0.57735,1277.23,709.14)">
                        <rect x="-578.62" y="1586.81" width="96.437" height="83.517" style="fill:rgb(107,112,125);"/>
                    </g>
                </g>
                <g id="_0-28" serif:id="0%" transform="matrix(0.832094,0,0,0.833953,1317.44,429.135)">
                    <g transform="matrix(0.866025,0.5,-5.55112e-17,1.1547,1277.23,709.14)">
                        <rect x="1253.68" y="501.099" width="96.437" height="83.517" style="fill:rgb(14,17,25);"/>
                    </g>
                    <g transform="matrix(0.866025,-0.5,5.55112e-17,1.1547,1277.23,709.14)">
                        <rect x="1350.11" y="1670.33" width="96.437" height="83.517" style="fill:rgb(60,66,80);"/>
                    </g>
                    <g transform="matrix(0.866025,-0.5,1,0.57735,1277.23,709.14)">
                        <rect x="-578.62" y="1586.81" width="96.437" height="83.517" style="fill:rgb(107,112,125);"/>
                    </g>
                </g>
                <g id="_0-29" serif:id="0%" transform="matrix(0.832094,0,0,0.833953,1150.41,429.135)">
                    <g transform="matrix(0.866025,0.5,-5.55112e-17,1.1547,1277.23,709.14)">
                        <rect x="1253.68" y="501.099" width="96.437" height="83.517" style="fill:rgb(14,17,25);"/>
                    </g>
                    <g transform="matrix(0.866025,-0.5,5.55112e-17,1.1547,1277.23,709.14)">
                        <rect x="1350.11" y="1670.33" width="96.437" height="83.517" style="fill:rgb(60,66,80);"/>
                    </g>
                    <g transform="matrix(0.866025,-0.5,1,0.57735,1277.23,709.14)">
                        <rect x="-578.62" y="1586.81" width="96.437" height="83.517" style="fill:rgb(107,112,125);"/>
                    </g>
                </g>
                <g id="_0-30" serif:id="0%" transform="matrix(0.832094,0,0,0.833953,1233.93,477.353)">
                    <g transform="matrix(0.866025,0.5,-5.55112e-17,1.1547,1277.23,709.14)">
                        <rect x="1253.68" y="501.099" width="96.437" height="83.517" style="fill:rgb(14,17,25);"/>
                    </g>
                    <g transform="matrix(0.866025,-0.5,5.55112e-17,1.1547,1277.23,709.14)">
                        <rect x="1350.11" y="1670.33" width="96.437" height="83.517" style="fill:rgb(60,66,80);"/>
                    </g>
                    <g transform="matrix(0.866025,-0.5,1,0.57735,1277.23,709.14)">
                        <rect x="-578.62" y="1586.81" width="96.437" height="83.517" style="fill:rgb(107,112,125);"/>
                    </g>
                </g>
            </g>
            <g id="Floor4" serif:id="Floor" transform="matrix(1,0,0,1,-1613.15,-949.004)">
                <g id="_0-31" serif:id="0%" transform="matrix(0.832094,0,0,0.833953,1233.93,380.917)">
                    <g transform="matrix(0.866025,0.5,-5.55112e-17,1.1547,1277.23,709.14)">
                        <rect x="1253.68" y="501.099" width="96.437" height="83.517" style="fill:rgb(14,17,25);"/>
                    </g>
                    <g transform="matrix(0.866025,-0.5,5.55112e-17,1.1547,1277.23,709.14)">
                        <rect x="1350.11" y="1670.33" width="96.437" height="83.517" style="fill:rgb(60,66,80);"/>
                    </g>
                    <g transform="matrix(0.866025,-0.5,1,0.57735,1277.23,709.14)">
                        <rect x="-578.62" y="1586.81" width="96.437" height="83.517" style="fill:rgb(107,112,125);"/>
                    </g>
                </g>
                <g id="_0-32" serif:id="0%" transform="matrix(0.832094,0,0,0.833953,1317.44,429.135)">
                    <g transform="matrix(0.866025,0.5,-5.55112e-17,1.1547,1277.23,709.14)">
                        <rect x="1253.68" y="501.099" width="96.437" height="83.517" style="fill:rgb(14,17,25);"/>
                    </g>
                    <g transform="matrix(0.866025,-0.5,5.55112e-17,1.1547,1277.23,709.14)">
                        <rect x="1350.11" y="1670.33" width="96.437" height="83.517" style="fill:rgb(60,66,80);"/>
                    </g>
                    <g transform="matrix(0.866025,-0.5,1,0.57735,1277.23,709.14)">
                        <rect x="-578.62" y="1586.81" width="96.437" height="83.517" style="fill:rgb(107,112,125);"/>
                    </g>
                </g>
                <g id="_0-33" serif:id="0%" transform="matrix(0.832094,0,0,0.833953,1150.41,429.135)">
                    <g transform="matrix(0.866025,0.5,-5.55112e-17,1.1547,1277.23,709.14)">
                        <rect x="1253.68" y="501.099" width="96.437" height="83.517" style="fill:rgb(14,17,25);"/>
                    </g>
                    <g transform="matrix(0.866025,-0.5,5.55112e-17,1.1547,1277.23,709.14)">
                        <rect x="1350.11" y="1670.33" width="96.437" height="83.517" style="fill:rgb(60,66,80);"/>
                    </g>
                    <g transform="matrix(0.866025,-0.5,1,0.57735,1277.23,709.14)">
                        <rect x="-578.62" y="1586.81" width="96.437" height="83.517" style="fill:rgb(107,112,125);"/>
                    </g>
                </g>
                <g id="_0-34" serif:id="0%" transform="matrix(0.832094,0,0,0.833953,1233.93,477.353)">
                    <g transform="matrix(0.866025,0.5,-5.55112e-17,1.1547,1277.23,709.14)">
                        <rect x="1253.68" y="501.099" width="96.437" height="83.517" style="fill:rgb(255,166,1);"/>
                    </g>
                    <g transform="matrix(0.866025,-0.5,5.55112e-17,1.15277,1277.23,712.365)">
                        <rect x="1350.11" y="1670.33" width="96.437" height="83.517" style="fill:rgb(255,212,100);"/>
                    </g>
                    <g transform="matrix(0.866025,-0.5,1,0.57735,1277.23,709.14)">
                        <rect x="-578.62" y="1586.81" width="96.437" height="83.517" style="fill:rgb(255,226,151);"/>
                    </g>
                </g>
            </g>
        </g>
        <g transform="matrix(0.428571,0,0,0.428571,1146.75,164.876)">
            <g transform="matrix(0.676363,-0.390498,4.72691e-17,0.882126,433.551,755.808)">
                <rect x="1334.66" y="936.575" width="246.958" height="218.646" style="fill:rgb(255,212,100);"/>
            </g>
            <g transform="matrix(0.866025,0.5,-5.55112e-17,1.1547,0,0)">
                <rect x="1350.11" y="250.55" width="192.873" height="167.033" style="fill:rgb(255,166,1);"/>
            </g>
            <g transform="matrix(0.866025,-0.5,1,0.57735,0,0)">
                <rect x="-289.31" y="1419.78" width="192.873" height="167.033" style="fill:rgb(255,226,151);"/>
            </g>
        </g>
    </g>
</svg>
