<svg xmlns="http://www.w3.org/2000/svg" width="32" height="32" viewBox="0 0 32 32"><g stroke-width="2.1" transform="translate(-181.893 -791.217) scale(2.7827)"><path fill="#92828f" d="m 71.053018,290.23753 2.910417,-1.5875 0,3.34799 -2.910417,1.6791 z"/><path fill="#d7b2a9" d="m 71.053018,290.23753 -2.910417,-1.5875 0,3.34799 2.910417,1.6791 z"/><path fill="#f2f2f2" d="m 71.053021,287.06253 2.910411,1.5875 -2.910414,1.5875 -2.910411,-1.5875 z"/><path fill="#d2dce9" d="m 71.053021,287.06253 2.910411,1.5875 -2.910414,1.5875 z"/><path fill="#d9d8da" d="M71.053018 290.23753l2.910417-1.5875.978336.52845-2.83042 1.63121zM71.053018 290.23753l-2.910417-1.5875-.978339.52845 2.830423 1.63121z"/><path fill="#d9d8da" d="M71.050952 287.06515l-2.910417 1.5875-.978339-.52845 2.830422-1.63124zM71.053018 287.06206l2.910417 1.5875.978336-.52846-2.83042-1.63123z"/></g></svg>