<svg xmlns="http://www.w3.org/2000/svg" width="32" height="32" viewBox="0 0 32 32"><g transform="translate(-136.822 -1187.163) scale(3.77953)"><path fill="#d7343e" d="m 156.2793,104.72656 a 0.52276823,0.52276823 0 0 0 -0.2461,0.0703 l -0.21093,0.12304 -8.09961,4.67188 a 1.794377,1.794377 0 0 0 -0.0332,0.0195 l -0.0566,0.0332 a 1.6208385,1.6208385 0 0 0 -0.81054,1.4043 l 0,0.0977 0,9.12696 0,0.24609 a 0.52276792,0.52276792 0 0 0 0.29101,0.46875 l 0.95899,0.57227 a 0.52276792,0.52276792 0 0 0 0.0195,0.0117 0.52276792,0.52276792 0 0 0 0.52148,0.002 l 8.31055,-4.79492 a 1.794378,1.794378 0 0 0 0.0332,-0.0195 l 0.0566,-0.0332 a 1.6208376,1.6208376 0 0 0 0.81055,-1.40429 l 0,-0.0977 0,-9.12891 0,-0.24609 a 0.52276823,0.52276823 0 0 0 -0.24805,-0.44336 l -0.99805,-0.5957 a 0.52276823,0.52276823 0 0 0 -0.29882,-0.084 z" transform="translate(0 288.533) scale(.26458)"/><path fill="#eef2fa" d="m 41.615305,316.40124 a 0.13831576,0.13831576 0 0 0 -0.06511,0.0186 l -0.05581,0.0326 -2.143021,1.2361 a 0.47476224,0.47476224 0 0 0 -0.0083,0.005 l -0.01499,0.009 a 0.42884685,0.42884685 0 0 0 -0.214458,0.37156 l 0,0.0258 0,2.41484 0,0.0651 a 0.13831568,0.13831568 0 0 0 0.207223,0.11989 l 2.198832,-1.26866 a 0.47476251,0.47476251 0 0 0 0.0083,-0.005 l 0.01499,-0.009 a 0.42884661,0.42884661 0 0 0 0.214458,-0.37156 l 0,-0.0258 0,-2.41536 0,-0.0651 a 0.13831576,0.13831576 0 0 0 -0.142111,-0.13798 z"/><path fill="#ed4a4b" d="m 41.615305,316.40124 c -0.02291,7.1e-4 -0.04528,0.007 -0.06511,0.0186 l -0.05581,0.0326 -2.143021,1.2361 c -0.0028,0.002 -0.0055,0.003 -0.0083,0.005 l -0.01499,0.009 c -0.132749,0.0766 -0.214508,0.21828 -0.214458,0.37156 l 0,0.0258 0,0.59696 2.643767,-1.52498 0,-0.5675 0,-0.0651 c -1.62e-4,-0.0778 -0.06438,-0.14011 -0.142111,-0.13798 z"/><path fill="#2a292e" d="m 149.5625,106.52539 c -0.15715,-0.0151 -0.34753,0.0829 -0.5,0.26172 -0.15243,0.17877 -0.24301,0.40988 -0.23828,0.60547 l 0,1.55469 1,0.60742 0,0.008 0.99805,-0.57617 0,-1.61914 c -0.004,-0.1702 -0.0884,-0.27507 -0.21094,-0.31446 l 0.0137,-0.0156 -0.98047,-0.49023 c -0.0411,-0.022 -0.0608,-0.0159 -0.082,-0.0215 z" transform="translate(0 288.533) scale(.26458)"/><path fill="#3c3b41" d="m 150.5625,107.02539 c -0.15715,-0.0151 -0.34753,0.0829 -0.5,0.26172 -0.15243,0.17877 -0.24301,0.40988 -0.23828,0.60547 l 0,1.66992 0.99805,-0.57617 0,-1.61914 c -0.005,-0.19578 -0.103,-0.32517 -0.25977,-0.3418 z" transform="translate(0 288.533) scale(.26458)"/><path fill="#3c3b41" d="m 150.5625,107.02539 c -0.15715,-0.0151 -0.34753,0.0829 -0.5,0.26172 -0.15243,0.17877 -0.24301,0.40988 -0.23828,0.60547 l 0,1.66992 0.99805,-0.57617 0,-1.61914 c -0.005,-0.19578 -0.103,-0.32517 -0.25977,-0.3418 z" transform="translate(0 288.533) scale(.26458)"/><g transform="translate(1.323 -.76)"><path fill="#2a292e" d="m 149.5625,106.52539 c -0.15715,-0.0151 -0.34753,0.0829 -0.5,0.26172 -0.15243,0.17877 -0.24301,0.40988 -0.23828,0.60547 l 0,1.55469 1,0.60742 0,0.008 0.99805,-0.57617 0,-1.61914 c -0.004,-0.1702 -0.0884,-0.27507 -0.21094,-0.31446 l 0.0137,-0.0156 -0.98047,-0.49023 c -0.0411,-0.022 -0.0608,-0.0159 -0.082,-0.0215 z" transform="translate(0 288.533) scale(.26458)"/><path fill="#3c3b41" d="m 150.5625,107.02539 c -0.15715,-0.0151 -0.34753,0.0829 -0.5,0.26172 -0.15243,0.17877 -0.24301,0.40988 -0.23828,0.60547 l 0,1.66992 0.99805,-0.57617 0,-1.61914 c -0.005,-0.19578 -0.103,-0.32517 -0.25977,-0.3418 z" transform="translate(0 288.533) scale(.26458)"/><path fill="#3c3b41" d="m 150.5625,107.02539 c -0.15715,-0.0151 -0.34753,0.0829 -0.5,0.26172 -0.15243,0.17877 -0.24301,0.40988 -0.23828,0.60547 l 0,1.66992 0.99805,-0.57617 0,-1.61914 c -0.005,-0.19578 -0.103,-0.32517 -0.25977,-0.3418 z" transform="translate(0 288.533) scale(.26458)"/></g></g></svg>