<svg xmlns="http://www.w3.org/2000/svg" width="32" height="32" viewBox="0 0 32 32"><g transform="translate(-46.74 -1230.67) scale(3.77953)"><g stroke-width="1.891" transform="translate(14.609 177.127) scale(.52877)"><path fill="#d3e4f1" d="m 2.6458335,293.21327 1.0583332,0.34716 2.38125,-1.37504 -1.0583333,-0.61031 -2.3812499,1.37356 z"/><path fill="#eef2fa" d="m 6.0854167,292.18677 -2.3812499,1.37356 0,0.26458 2.3812499,-1.37356 z"/><path fill="#c9d6e5" d="m 2.6458335,292.95003 0,0.26458 1.0583333,0.6103 0,-0.26458 z"/></g><path fill="#999" d="M18 1.8476562L16.003906 3 16.001953 2.9980469 16 3l0-5.0000003 2-1.154297c0-4.239245.000013 10.6209387 0 5.0019535zM15 2.421875l0-5.0000003 1 .578125L16 3 15.9902 2.99219z" transform="rotate(180 10.616 165.154) scale(.26458)"/><path fill="#eef2fa" d="m 17.26275,330.99135 -0.528133,0.30489 -5.29e-4,-5.2e-4 -5.3e-4,5.2e-4 0,0.79375 0.529167,-0.30541 c 0,-1.12163 4e-6,0.69346 0,-0.79323 z"/><path fill="#c9d6e5" d="m 16.469,331.14328 0,0.79375 0.264583,0.15296 0,-0.79375 -0.0026,-0.002 z"/><path fill="#d3e4f1" d="m 14.885083,328.80436 2.99973,-1.65095 a 0.20432515,0.20432515 0 0 1 0.302844,0.179 l 0,2.84951 a 0.26458332,0.26458332 0 0 1 -0.132352,0.22917 l -3.08023,1.77729 a 0.15135787,0.15135787 0 0 1 -0.227002,-0.1311 l 0,-3.02112 a 0.26458325,0.26458325 0 0 1 0.13701,-0.2318 z"/><path fill="#d3e4f1" fill-rule="evenodd" d="M18.052645 327.1402l.283021.14046-.204125.10713zM15.113568 332.33299l-.28303-.14046.20413-.10713z"/><path fill="#b0c4da" d="m 62.244141,161.04492 0,2.36914 1,-0.57617 0,-1.21484 -0.0098,-0.008 z" transform="translate(0 288.533) scale(.26458)"/><path fill="#3c3b41" d="m 15.149672,328.93665 2.99973,-1.65095 a 0.20432515,0.20432515 30.586491 0 1 0.302844,0.179 l 0,2.84951 a 0.26458332,0.26458332 120.00753 0 1 -0.132352,0.22917 l -3.08023,1.77729 a 0.15135787,0.15135787 30.007527 0 1 -0.227002,-0.1311 l 0,-3.02112 a 0.26458325,0.26458325 120.58649 0 1 0.13701,-0.2318 z"/><path fill="#d3e4f1" d="m 65.244141,160.4707 -1.996094,1.15235 -0.002,-0.002 -0.002,0.002 0,1.21484 2,-1.1543 c 0,0.25046 6e-6,1.06033 0,-1.21289 z" transform="translate(0 288.533) scale(.26458)"/><path fill="#eef2fa" d="m 69.740234,156.17578 -13,7.43945 0,1.38477 a 0.57206124,0.57206124 0 0 0 0.859375,0.49609 l 11.640625,-6.71875 a 0.99999995,0.99999995 0 0 0 0.5,-0.86523 z" transform="translate(0 288.533) scale(.26458)"/><path fill="#6fb7e6" d="m 15.276322,329.18813 2.912264,-1.59134 0,2.10649 -2.912264,1.66634 z"/><ellipse cx="-281.515" cy="-185.029" fill="#2a292e" rx=".146" ry=".09" transform="matrix(.51494 -.85722 -.8744 -.4852 0 0)"/></g></svg>